M48
; DRILL file {KiCad 9.0.0} date 2025-04-29T11:42:47+0100
; FORMAT={-:-/ absolute / inch / decimal}
; #@! TF.CreationDate,2025-04-29T11:42:47+01:00
; #@! TF.GenerationSoftware,Kicad,Pcbnew,9.0.0
; #@! TF.FileFunction,Plated,1,2,PTH
FMAT,2
INCH
; #@! TA.AperFunction,Plated,PTH,ViaDrill
T1C0.0118
; #@! TA.AperFunction,Plated,PTH,ComponentDrill
T2C0.0394
%
G90
G05
T1
X4.4535Y-3.0953
X4.5709Y-3.2087
X4.5827Y-2.9134
X4.6102Y-3.0945
X4.689Y-2.9213
X4.689Y-2.9764
X4.689Y-3.2087
X4.7874Y-3.0945
X4.8031Y-2.7303
X4.8031Y-2.7913
X5.0236Y-3.0945
X5.2402Y-3.0945
T2
X4.0449Y-2.0
X4.0449Y-2.1
X4.0449Y-2.2
X4.0449Y-2.3
X4.0449Y-2.4
X4.0449Y-2.5
X4.0449Y-2.6
X4.0449Y-2.7
X4.0449Y-2.8
X4.1449Y-2.8004
X4.1453Y-3.097
X4.2449Y-2.8004
X4.2453Y-3.097
X4.3435Y-2.1005
X4.4435Y-2.1005
X4.6459Y-2.2004
X4.6459Y-2.3004
X4.6459Y-2.4004
X4.6459Y-2.5004
X4.8196Y-2.634
X4.9196Y-2.634
X5.0196Y-2.634
X5.1196Y-2.634
X5.2196Y-2.634
X5.3196Y-2.634
M30
