%TF.GenerationSoftware,KiCad,Pcbnew,9.0.0*%
%TF.CreationDate,2025-04-29T11:42:51+01:00*%
%TF.ProjectId,uPicomac,75506963-6f6d-4616-932e-6b696361645f,rev?*%
%TF.SameCoordinates,Original*%
%TF.FileFunction,AssemblyDrawing,Top*%
%FSLAX46Y46*%
G04 Gerber Fmt 4.6, Leading zero omitted, Abs format (unit mm)*
G04 Created by KiCad (PCBNEW 9.0.0) date 2025-04-29 11:42:51*
%MOMM*%
%LPD*%
G01*
G04 APERTURE LIST*
%ADD10C,0.125000*%
%ADD11C,0.150000*%
%ADD12C,0.120000*%
%ADD13C,0.100000*%
%ADD14C,0.200000*%
G04 APERTURE END LIST*
D10*
X112004761Y-84172196D02*
X112309523Y-84172196D01*
X112119047Y-83905530D02*
X112119047Y-84591244D01*
X112119047Y-84591244D02*
X112157142Y-84667435D01*
X112157142Y-84667435D02*
X112233332Y-84705530D01*
X112233332Y-84705530D02*
X112309523Y-84705530D01*
X112576190Y-84172196D02*
X112576190Y-84972196D01*
X112576190Y-84210292D02*
X112652380Y-84172196D01*
X112652380Y-84172196D02*
X112804761Y-84172196D01*
X112804761Y-84172196D02*
X112880952Y-84210292D01*
X112880952Y-84210292D02*
X112919047Y-84248387D01*
X112919047Y-84248387D02*
X112957142Y-84324577D01*
X112957142Y-84324577D02*
X112957142Y-84553149D01*
X112957142Y-84553149D02*
X112919047Y-84629339D01*
X112919047Y-84629339D02*
X112880952Y-84667435D01*
X112880952Y-84667435D02*
X112804761Y-84705530D01*
X112804761Y-84705530D02*
X112652380Y-84705530D01*
X112652380Y-84705530D02*
X112576190Y-84667435D01*
X113223809Y-83905530D02*
X113757143Y-83905530D01*
X113757143Y-83905530D02*
X113414285Y-84705530D01*
D11*
X111780952Y-81258152D02*
X112161904Y-81258152D01*
X111923809Y-80924819D02*
X111923809Y-81781961D01*
X111923809Y-81781961D02*
X111971428Y-81877200D01*
X111971428Y-81877200D02*
X112066666Y-81924819D01*
X112066666Y-81924819D02*
X112161904Y-81924819D01*
X112495238Y-81258152D02*
X112495238Y-82258152D01*
X112495238Y-81305771D02*
X112590476Y-81258152D01*
X112590476Y-81258152D02*
X112780952Y-81258152D01*
X112780952Y-81258152D02*
X112876190Y-81305771D01*
X112876190Y-81305771D02*
X112923809Y-81353390D01*
X112923809Y-81353390D02*
X112971428Y-81448628D01*
X112971428Y-81448628D02*
X112971428Y-81734342D01*
X112971428Y-81734342D02*
X112923809Y-81829580D01*
X112923809Y-81829580D02*
X112876190Y-81877200D01*
X112876190Y-81877200D02*
X112780952Y-81924819D01*
X112780952Y-81924819D02*
X112590476Y-81924819D01*
X112590476Y-81924819D02*
X112495238Y-81877200D01*
X113304762Y-80924819D02*
X113971428Y-80924819D01*
X113971428Y-80924819D02*
X113542857Y-81924819D01*
D10*
X112404761Y-73230261D02*
X112709523Y-73230261D01*
X112519047Y-72963595D02*
X112519047Y-73649309D01*
X112519047Y-73649309D02*
X112557142Y-73725500D01*
X112557142Y-73725500D02*
X112633332Y-73763595D01*
X112633332Y-73763595D02*
X112709523Y-73763595D01*
X112976190Y-73230261D02*
X112976190Y-74030261D01*
X112976190Y-73268357D02*
X113052380Y-73230261D01*
X113052380Y-73230261D02*
X113204761Y-73230261D01*
X113204761Y-73230261D02*
X113280952Y-73268357D01*
X113280952Y-73268357D02*
X113319047Y-73306452D01*
X113319047Y-73306452D02*
X113357142Y-73382642D01*
X113357142Y-73382642D02*
X113357142Y-73611214D01*
X113357142Y-73611214D02*
X113319047Y-73687404D01*
X113319047Y-73687404D02*
X113280952Y-73725500D01*
X113280952Y-73725500D02*
X113204761Y-73763595D01*
X113204761Y-73763595D02*
X113052380Y-73763595D01*
X113052380Y-73763595D02*
X112976190Y-73725500D01*
X113623809Y-72963595D02*
X114119047Y-72963595D01*
X114119047Y-72963595D02*
X113852381Y-73268357D01*
X113852381Y-73268357D02*
X113966666Y-73268357D01*
X113966666Y-73268357D02*
X114042857Y-73306452D01*
X114042857Y-73306452D02*
X114080952Y-73344547D01*
X114080952Y-73344547D02*
X114119047Y-73420738D01*
X114119047Y-73420738D02*
X114119047Y-73611214D01*
X114119047Y-73611214D02*
X114080952Y-73687404D01*
X114080952Y-73687404D02*
X114042857Y-73725500D01*
X114042857Y-73725500D02*
X113966666Y-73763595D01*
X113966666Y-73763595D02*
X113738095Y-73763595D01*
X113738095Y-73763595D02*
X113661904Y-73725500D01*
X113661904Y-73725500D02*
X113623809Y-73687404D01*
D11*
X110264225Y-71925498D02*
X110645177Y-71925498D01*
X110407082Y-71592165D02*
X110407082Y-72449307D01*
X110407082Y-72449307D02*
X110454701Y-72544546D01*
X110454701Y-72544546D02*
X110549939Y-72592165D01*
X110549939Y-72592165D02*
X110645177Y-72592165D01*
X110978511Y-71925498D02*
X110978511Y-72925498D01*
X110978511Y-71973117D02*
X111073749Y-71925498D01*
X111073749Y-71925498D02*
X111264225Y-71925498D01*
X111264225Y-71925498D02*
X111359463Y-71973117D01*
X111359463Y-71973117D02*
X111407082Y-72020736D01*
X111407082Y-72020736D02*
X111454701Y-72115974D01*
X111454701Y-72115974D02*
X111454701Y-72401688D01*
X111454701Y-72401688D02*
X111407082Y-72496926D01*
X111407082Y-72496926D02*
X111359463Y-72544546D01*
X111359463Y-72544546D02*
X111264225Y-72592165D01*
X111264225Y-72592165D02*
X111073749Y-72592165D01*
X111073749Y-72592165D02*
X110978511Y-72544546D01*
X111788035Y-71592165D02*
X112407082Y-71592165D01*
X112407082Y-71592165D02*
X112073749Y-71973117D01*
X112073749Y-71973117D02*
X112216606Y-71973117D01*
X112216606Y-71973117D02*
X112311844Y-72020736D01*
X112311844Y-72020736D02*
X112359463Y-72068355D01*
X112359463Y-72068355D02*
X112407082Y-72163593D01*
X112407082Y-72163593D02*
X112407082Y-72401688D01*
X112407082Y-72401688D02*
X112359463Y-72496926D01*
X112359463Y-72496926D02*
X112311844Y-72544546D01*
X112311844Y-72544546D02*
X112216606Y-72592165D01*
X112216606Y-72592165D02*
X111930892Y-72592165D01*
X111930892Y-72592165D02*
X111835654Y-72544546D01*
X111835654Y-72544546D02*
X111788035Y-72496926D01*
D10*
X114251491Y-84152359D02*
X114556253Y-84152359D01*
X114365777Y-83885693D02*
X114365777Y-84571407D01*
X114365777Y-84571407D02*
X114403872Y-84647598D01*
X114403872Y-84647598D02*
X114480062Y-84685693D01*
X114480062Y-84685693D02*
X114556253Y-84685693D01*
X114822920Y-84152359D02*
X114822920Y-84952359D01*
X114822920Y-84190455D02*
X114899110Y-84152359D01*
X114899110Y-84152359D02*
X115051491Y-84152359D01*
X115051491Y-84152359D02*
X115127682Y-84190455D01*
X115127682Y-84190455D02*
X115165777Y-84228550D01*
X115165777Y-84228550D02*
X115203872Y-84304740D01*
X115203872Y-84304740D02*
X115203872Y-84533312D01*
X115203872Y-84533312D02*
X115165777Y-84609502D01*
X115165777Y-84609502D02*
X115127682Y-84647598D01*
X115127682Y-84647598D02*
X115051491Y-84685693D01*
X115051491Y-84685693D02*
X114899110Y-84685693D01*
X114899110Y-84685693D02*
X114822920Y-84647598D01*
X115927682Y-83885693D02*
X115546730Y-83885693D01*
X115546730Y-83885693D02*
X115508634Y-84266645D01*
X115508634Y-84266645D02*
X115546730Y-84228550D01*
X115546730Y-84228550D02*
X115622920Y-84190455D01*
X115622920Y-84190455D02*
X115813396Y-84190455D01*
X115813396Y-84190455D02*
X115889587Y-84228550D01*
X115889587Y-84228550D02*
X115927682Y-84266645D01*
X115927682Y-84266645D02*
X115965777Y-84342836D01*
X115965777Y-84342836D02*
X115965777Y-84533312D01*
X115965777Y-84533312D02*
X115927682Y-84609502D01*
X115927682Y-84609502D02*
X115889587Y-84647598D01*
X115889587Y-84647598D02*
X115813396Y-84685693D01*
X115813396Y-84685693D02*
X115622920Y-84685693D01*
X115622920Y-84685693D02*
X115546730Y-84647598D01*
X115546730Y-84647598D02*
X115508634Y-84609502D01*
D11*
X114027682Y-81238315D02*
X114408634Y-81238315D01*
X114170539Y-80904982D02*
X114170539Y-81762124D01*
X114170539Y-81762124D02*
X114218158Y-81857363D01*
X114218158Y-81857363D02*
X114313396Y-81904982D01*
X114313396Y-81904982D02*
X114408634Y-81904982D01*
X114741968Y-81238315D02*
X114741968Y-82238315D01*
X114741968Y-81285934D02*
X114837206Y-81238315D01*
X114837206Y-81238315D02*
X115027682Y-81238315D01*
X115027682Y-81238315D02*
X115122920Y-81285934D01*
X115122920Y-81285934D02*
X115170539Y-81333553D01*
X115170539Y-81333553D02*
X115218158Y-81428791D01*
X115218158Y-81428791D02*
X115218158Y-81714505D01*
X115218158Y-81714505D02*
X115170539Y-81809743D01*
X115170539Y-81809743D02*
X115122920Y-81857363D01*
X115122920Y-81857363D02*
X115027682Y-81904982D01*
X115027682Y-81904982D02*
X114837206Y-81904982D01*
X114837206Y-81904982D02*
X114741968Y-81857363D01*
X116122920Y-80904982D02*
X115646730Y-80904982D01*
X115646730Y-80904982D02*
X115599111Y-81381172D01*
X115599111Y-81381172D02*
X115646730Y-81333553D01*
X115646730Y-81333553D02*
X115741968Y-81285934D01*
X115741968Y-81285934D02*
X115980063Y-81285934D01*
X115980063Y-81285934D02*
X116075301Y-81333553D01*
X116075301Y-81333553D02*
X116122920Y-81381172D01*
X116122920Y-81381172D02*
X116170539Y-81476410D01*
X116170539Y-81476410D02*
X116170539Y-81714505D01*
X116170539Y-81714505D02*
X116122920Y-81809743D01*
X116122920Y-81809743D02*
X116075301Y-81857363D01*
X116075301Y-81857363D02*
X115980063Y-81904982D01*
X115980063Y-81904982D02*
X115741968Y-81904982D01*
X115741968Y-81904982D02*
X115646730Y-81857363D01*
X115646730Y-81857363D02*
X115599111Y-81809743D01*
D10*
X118895418Y-67745838D02*
X119200180Y-67745838D01*
X119009704Y-67479172D02*
X119009704Y-68164886D01*
X119009704Y-68164886D02*
X119047799Y-68241077D01*
X119047799Y-68241077D02*
X119123989Y-68279172D01*
X119123989Y-68279172D02*
X119200180Y-68279172D01*
X119466847Y-67745838D02*
X119466847Y-68545838D01*
X119466847Y-67783934D02*
X119543037Y-67745838D01*
X119543037Y-67745838D02*
X119695418Y-67745838D01*
X119695418Y-67745838D02*
X119771609Y-67783934D01*
X119771609Y-67783934D02*
X119809704Y-67822029D01*
X119809704Y-67822029D02*
X119847799Y-67898219D01*
X119847799Y-67898219D02*
X119847799Y-68126791D01*
X119847799Y-68126791D02*
X119809704Y-68202981D01*
X119809704Y-68202981D02*
X119771609Y-68241077D01*
X119771609Y-68241077D02*
X119695418Y-68279172D01*
X119695418Y-68279172D02*
X119543037Y-68279172D01*
X119543037Y-68279172D02*
X119466847Y-68241077D01*
X120304942Y-67822029D02*
X120228752Y-67783934D01*
X120228752Y-67783934D02*
X120190657Y-67745838D01*
X120190657Y-67745838D02*
X120152561Y-67669648D01*
X120152561Y-67669648D02*
X120152561Y-67631553D01*
X120152561Y-67631553D02*
X120190657Y-67555362D01*
X120190657Y-67555362D02*
X120228752Y-67517267D01*
X120228752Y-67517267D02*
X120304942Y-67479172D01*
X120304942Y-67479172D02*
X120457323Y-67479172D01*
X120457323Y-67479172D02*
X120533514Y-67517267D01*
X120533514Y-67517267D02*
X120571609Y-67555362D01*
X120571609Y-67555362D02*
X120609704Y-67631553D01*
X120609704Y-67631553D02*
X120609704Y-67669648D01*
X120609704Y-67669648D02*
X120571609Y-67745838D01*
X120571609Y-67745838D02*
X120533514Y-67783934D01*
X120533514Y-67783934D02*
X120457323Y-67822029D01*
X120457323Y-67822029D02*
X120304942Y-67822029D01*
X120304942Y-67822029D02*
X120228752Y-67860124D01*
X120228752Y-67860124D02*
X120190657Y-67898219D01*
X120190657Y-67898219D02*
X120152561Y-67974410D01*
X120152561Y-67974410D02*
X120152561Y-68126791D01*
X120152561Y-68126791D02*
X120190657Y-68202981D01*
X120190657Y-68202981D02*
X120228752Y-68241077D01*
X120228752Y-68241077D02*
X120304942Y-68279172D01*
X120304942Y-68279172D02*
X120457323Y-68279172D01*
X120457323Y-68279172D02*
X120533514Y-68241077D01*
X120533514Y-68241077D02*
X120571609Y-68202981D01*
X120571609Y-68202981D02*
X120609704Y-68126791D01*
X120609704Y-68126791D02*
X120609704Y-67974410D01*
X120609704Y-67974410D02*
X120571609Y-67898219D01*
X120571609Y-67898219D02*
X120533514Y-67860124D01*
X120533514Y-67860124D02*
X120457323Y-67822029D01*
D11*
X118703474Y-67838897D02*
X119084426Y-67838897D01*
X118846331Y-67505564D02*
X118846331Y-68362706D01*
X118846331Y-68362706D02*
X118893950Y-68457945D01*
X118893950Y-68457945D02*
X118989188Y-68505564D01*
X118989188Y-68505564D02*
X119084426Y-68505564D01*
X119417760Y-67838897D02*
X119417760Y-68838897D01*
X119417760Y-67886516D02*
X119512998Y-67838897D01*
X119512998Y-67838897D02*
X119703474Y-67838897D01*
X119703474Y-67838897D02*
X119798712Y-67886516D01*
X119798712Y-67886516D02*
X119846331Y-67934135D01*
X119846331Y-67934135D02*
X119893950Y-68029373D01*
X119893950Y-68029373D02*
X119893950Y-68315087D01*
X119893950Y-68315087D02*
X119846331Y-68410325D01*
X119846331Y-68410325D02*
X119798712Y-68457945D01*
X119798712Y-68457945D02*
X119703474Y-68505564D01*
X119703474Y-68505564D02*
X119512998Y-68505564D01*
X119512998Y-68505564D02*
X119417760Y-68457945D01*
X120465379Y-67934135D02*
X120370141Y-67886516D01*
X120370141Y-67886516D02*
X120322522Y-67838897D01*
X120322522Y-67838897D02*
X120274903Y-67743659D01*
X120274903Y-67743659D02*
X120274903Y-67696040D01*
X120274903Y-67696040D02*
X120322522Y-67600802D01*
X120322522Y-67600802D02*
X120370141Y-67553183D01*
X120370141Y-67553183D02*
X120465379Y-67505564D01*
X120465379Y-67505564D02*
X120655855Y-67505564D01*
X120655855Y-67505564D02*
X120751093Y-67553183D01*
X120751093Y-67553183D02*
X120798712Y-67600802D01*
X120798712Y-67600802D02*
X120846331Y-67696040D01*
X120846331Y-67696040D02*
X120846331Y-67743659D01*
X120846331Y-67743659D02*
X120798712Y-67838897D01*
X120798712Y-67838897D02*
X120751093Y-67886516D01*
X120751093Y-67886516D02*
X120655855Y-67934135D01*
X120655855Y-67934135D02*
X120465379Y-67934135D01*
X120465379Y-67934135D02*
X120370141Y-67981754D01*
X120370141Y-67981754D02*
X120322522Y-68029373D01*
X120322522Y-68029373D02*
X120274903Y-68124611D01*
X120274903Y-68124611D02*
X120274903Y-68315087D01*
X120274903Y-68315087D02*
X120322522Y-68410325D01*
X120322522Y-68410325D02*
X120370141Y-68457945D01*
X120370141Y-68457945D02*
X120465379Y-68505564D01*
X120465379Y-68505564D02*
X120655855Y-68505564D01*
X120655855Y-68505564D02*
X120751093Y-68457945D01*
X120751093Y-68457945D02*
X120798712Y-68410325D01*
X120798712Y-68410325D02*
X120846331Y-68315087D01*
X120846331Y-68315087D02*
X120846331Y-68124611D01*
X120846331Y-68124611D02*
X120798712Y-68029373D01*
X120798712Y-68029373D02*
X120751093Y-67981754D01*
X120751093Y-67981754D02*
X120655855Y-67934135D01*
D10*
X115953266Y-70630261D02*
X116258028Y-70630261D01*
X116067552Y-70363595D02*
X116067552Y-71049309D01*
X116067552Y-71049309D02*
X116105647Y-71125500D01*
X116105647Y-71125500D02*
X116181837Y-71163595D01*
X116181837Y-71163595D02*
X116258028Y-71163595D01*
X116524695Y-70630261D02*
X116524695Y-71430261D01*
X116524695Y-70668357D02*
X116600885Y-70630261D01*
X116600885Y-70630261D02*
X116753266Y-70630261D01*
X116753266Y-70630261D02*
X116829457Y-70668357D01*
X116829457Y-70668357D02*
X116867552Y-70706452D01*
X116867552Y-70706452D02*
X116905647Y-70782642D01*
X116905647Y-70782642D02*
X116905647Y-71011214D01*
X116905647Y-71011214D02*
X116867552Y-71087404D01*
X116867552Y-71087404D02*
X116829457Y-71125500D01*
X116829457Y-71125500D02*
X116753266Y-71163595D01*
X116753266Y-71163595D02*
X116600885Y-71163595D01*
X116600885Y-71163595D02*
X116524695Y-71125500D01*
X117591362Y-70363595D02*
X117438981Y-70363595D01*
X117438981Y-70363595D02*
X117362790Y-70401690D01*
X117362790Y-70401690D02*
X117324695Y-70439785D01*
X117324695Y-70439785D02*
X117248505Y-70554071D01*
X117248505Y-70554071D02*
X117210409Y-70706452D01*
X117210409Y-70706452D02*
X117210409Y-71011214D01*
X117210409Y-71011214D02*
X117248505Y-71087404D01*
X117248505Y-71087404D02*
X117286600Y-71125500D01*
X117286600Y-71125500D02*
X117362790Y-71163595D01*
X117362790Y-71163595D02*
X117515171Y-71163595D01*
X117515171Y-71163595D02*
X117591362Y-71125500D01*
X117591362Y-71125500D02*
X117629457Y-71087404D01*
X117629457Y-71087404D02*
X117667552Y-71011214D01*
X117667552Y-71011214D02*
X117667552Y-70820738D01*
X117667552Y-70820738D02*
X117629457Y-70744547D01*
X117629457Y-70744547D02*
X117591362Y-70706452D01*
X117591362Y-70706452D02*
X117515171Y-70668357D01*
X117515171Y-70668357D02*
X117362790Y-70668357D01*
X117362790Y-70668357D02*
X117286600Y-70706452D01*
X117286600Y-70706452D02*
X117248505Y-70744547D01*
X117248505Y-70744547D02*
X117210409Y-70820738D01*
D11*
X115761322Y-70723320D02*
X116142274Y-70723320D01*
X115904179Y-70389987D02*
X115904179Y-71247129D01*
X115904179Y-71247129D02*
X115951798Y-71342368D01*
X115951798Y-71342368D02*
X116047036Y-71389987D01*
X116047036Y-71389987D02*
X116142274Y-71389987D01*
X116475608Y-70723320D02*
X116475608Y-71723320D01*
X116475608Y-70770939D02*
X116570846Y-70723320D01*
X116570846Y-70723320D02*
X116761322Y-70723320D01*
X116761322Y-70723320D02*
X116856560Y-70770939D01*
X116856560Y-70770939D02*
X116904179Y-70818558D01*
X116904179Y-70818558D02*
X116951798Y-70913796D01*
X116951798Y-70913796D02*
X116951798Y-71199510D01*
X116951798Y-71199510D02*
X116904179Y-71294748D01*
X116904179Y-71294748D02*
X116856560Y-71342368D01*
X116856560Y-71342368D02*
X116761322Y-71389987D01*
X116761322Y-71389987D02*
X116570846Y-71389987D01*
X116570846Y-71389987D02*
X116475608Y-71342368D01*
X117808941Y-70389987D02*
X117618465Y-70389987D01*
X117618465Y-70389987D02*
X117523227Y-70437606D01*
X117523227Y-70437606D02*
X117475608Y-70485225D01*
X117475608Y-70485225D02*
X117380370Y-70628082D01*
X117380370Y-70628082D02*
X117332751Y-70818558D01*
X117332751Y-70818558D02*
X117332751Y-71199510D01*
X117332751Y-71199510D02*
X117380370Y-71294748D01*
X117380370Y-71294748D02*
X117427989Y-71342368D01*
X117427989Y-71342368D02*
X117523227Y-71389987D01*
X117523227Y-71389987D02*
X117713703Y-71389987D01*
X117713703Y-71389987D02*
X117808941Y-71342368D01*
X117808941Y-71342368D02*
X117856560Y-71294748D01*
X117856560Y-71294748D02*
X117904179Y-71199510D01*
X117904179Y-71199510D02*
X117904179Y-70961415D01*
X117904179Y-70961415D02*
X117856560Y-70866177D01*
X117856560Y-70866177D02*
X117808941Y-70818558D01*
X117808941Y-70818558D02*
X117713703Y-70770939D01*
X117713703Y-70770939D02*
X117523227Y-70770939D01*
X117523227Y-70770939D02*
X117427989Y-70818558D01*
X117427989Y-70818558D02*
X117380370Y-70866177D01*
X117380370Y-70866177D02*
X117332751Y-70961415D01*
D10*
X123884083Y-70446885D02*
X124188845Y-70446885D01*
X123998369Y-70180219D02*
X123998369Y-70865933D01*
X123998369Y-70865933D02*
X124036464Y-70942124D01*
X124036464Y-70942124D02*
X124112654Y-70980219D01*
X124112654Y-70980219D02*
X124188845Y-70980219D01*
X124455512Y-70446885D02*
X124455512Y-71246885D01*
X124455512Y-70484981D02*
X124531702Y-70446885D01*
X124531702Y-70446885D02*
X124684083Y-70446885D01*
X124684083Y-70446885D02*
X124760274Y-70484981D01*
X124760274Y-70484981D02*
X124798369Y-70523076D01*
X124798369Y-70523076D02*
X124836464Y-70599266D01*
X124836464Y-70599266D02*
X124836464Y-70827838D01*
X124836464Y-70827838D02*
X124798369Y-70904028D01*
X124798369Y-70904028D02*
X124760274Y-70942124D01*
X124760274Y-70942124D02*
X124684083Y-70980219D01*
X124684083Y-70980219D02*
X124531702Y-70980219D01*
X124531702Y-70980219D02*
X124455512Y-70942124D01*
X125141226Y-70256409D02*
X125179322Y-70218314D01*
X125179322Y-70218314D02*
X125255512Y-70180219D01*
X125255512Y-70180219D02*
X125445988Y-70180219D01*
X125445988Y-70180219D02*
X125522179Y-70218314D01*
X125522179Y-70218314D02*
X125560274Y-70256409D01*
X125560274Y-70256409D02*
X125598369Y-70332600D01*
X125598369Y-70332600D02*
X125598369Y-70408790D01*
X125598369Y-70408790D02*
X125560274Y-70523076D01*
X125560274Y-70523076D02*
X125103131Y-70980219D01*
X125103131Y-70980219D02*
X125598369Y-70980219D01*
D11*
X123692139Y-70539944D02*
X124073091Y-70539944D01*
X123834996Y-70206611D02*
X123834996Y-71063753D01*
X123834996Y-71063753D02*
X123882615Y-71158992D01*
X123882615Y-71158992D02*
X123977853Y-71206611D01*
X123977853Y-71206611D02*
X124073091Y-71206611D01*
X124406425Y-70539944D02*
X124406425Y-71539944D01*
X124406425Y-70587563D02*
X124501663Y-70539944D01*
X124501663Y-70539944D02*
X124692139Y-70539944D01*
X124692139Y-70539944D02*
X124787377Y-70587563D01*
X124787377Y-70587563D02*
X124834996Y-70635182D01*
X124834996Y-70635182D02*
X124882615Y-70730420D01*
X124882615Y-70730420D02*
X124882615Y-71016134D01*
X124882615Y-71016134D02*
X124834996Y-71111372D01*
X124834996Y-71111372D02*
X124787377Y-71158992D01*
X124787377Y-71158992D02*
X124692139Y-71206611D01*
X124692139Y-71206611D02*
X124501663Y-71206611D01*
X124501663Y-71206611D02*
X124406425Y-71158992D01*
X125263568Y-70301849D02*
X125311187Y-70254230D01*
X125311187Y-70254230D02*
X125406425Y-70206611D01*
X125406425Y-70206611D02*
X125644520Y-70206611D01*
X125644520Y-70206611D02*
X125739758Y-70254230D01*
X125739758Y-70254230D02*
X125787377Y-70301849D01*
X125787377Y-70301849D02*
X125834996Y-70397087D01*
X125834996Y-70397087D02*
X125834996Y-70492325D01*
X125834996Y-70492325D02*
X125787377Y-70635182D01*
X125787377Y-70635182D02*
X125215949Y-71206611D01*
X125215949Y-71206611D02*
X125834996Y-71206611D01*
D10*
X111004761Y-81744338D02*
X111309523Y-81744338D01*
X111119047Y-81477672D02*
X111119047Y-82163386D01*
X111119047Y-82163386D02*
X111157142Y-82239577D01*
X111157142Y-82239577D02*
X111233332Y-82277672D01*
X111233332Y-82277672D02*
X111309523Y-82277672D01*
X111576190Y-81744338D02*
X111576190Y-82544338D01*
X111576190Y-81782434D02*
X111652380Y-81744338D01*
X111652380Y-81744338D02*
X111804761Y-81744338D01*
X111804761Y-81744338D02*
X111880952Y-81782434D01*
X111880952Y-81782434D02*
X111919047Y-81820529D01*
X111919047Y-81820529D02*
X111957142Y-81896719D01*
X111957142Y-81896719D02*
X111957142Y-82125291D01*
X111957142Y-82125291D02*
X111919047Y-82201481D01*
X111919047Y-82201481D02*
X111880952Y-82239577D01*
X111880952Y-82239577D02*
X111804761Y-82277672D01*
X111804761Y-82277672D02*
X111652380Y-82277672D01*
X111652380Y-82277672D02*
X111576190Y-82239577D01*
X112719047Y-82277672D02*
X112261904Y-82277672D01*
X112490476Y-82277672D02*
X112490476Y-81477672D01*
X112490476Y-81477672D02*
X112414285Y-81591957D01*
X112414285Y-81591957D02*
X112338095Y-81668148D01*
X112338095Y-81668148D02*
X112261904Y-81706243D01*
D11*
X108794608Y-80350769D02*
X109175560Y-80350769D01*
X108937465Y-80017436D02*
X108937465Y-80874578D01*
X108937465Y-80874578D02*
X108985084Y-80969817D01*
X108985084Y-80969817D02*
X109080322Y-81017436D01*
X109080322Y-81017436D02*
X109175560Y-81017436D01*
X109508894Y-80350769D02*
X109508894Y-81350769D01*
X109508894Y-80398388D02*
X109604132Y-80350769D01*
X109604132Y-80350769D02*
X109794608Y-80350769D01*
X109794608Y-80350769D02*
X109889846Y-80398388D01*
X109889846Y-80398388D02*
X109937465Y-80446007D01*
X109937465Y-80446007D02*
X109985084Y-80541245D01*
X109985084Y-80541245D02*
X109985084Y-80826959D01*
X109985084Y-80826959D02*
X109937465Y-80922197D01*
X109937465Y-80922197D02*
X109889846Y-80969817D01*
X109889846Y-80969817D02*
X109794608Y-81017436D01*
X109794608Y-81017436D02*
X109604132Y-81017436D01*
X109604132Y-81017436D02*
X109508894Y-80969817D01*
X110937465Y-81017436D02*
X110366037Y-81017436D01*
X110651751Y-81017436D02*
X110651751Y-80017436D01*
X110651751Y-80017436D02*
X110556513Y-80160293D01*
X110556513Y-80160293D02*
X110461275Y-80255531D01*
X110461275Y-80255531D02*
X110366037Y-80303150D01*
D10*
X118204761Y-70630261D02*
X118509523Y-70630261D01*
X118319047Y-70363595D02*
X118319047Y-71049309D01*
X118319047Y-71049309D02*
X118357142Y-71125500D01*
X118357142Y-71125500D02*
X118433332Y-71163595D01*
X118433332Y-71163595D02*
X118509523Y-71163595D01*
X118776190Y-70630261D02*
X118776190Y-71430261D01*
X118776190Y-70668357D02*
X118852380Y-70630261D01*
X118852380Y-70630261D02*
X119004761Y-70630261D01*
X119004761Y-70630261D02*
X119080952Y-70668357D01*
X119080952Y-70668357D02*
X119119047Y-70706452D01*
X119119047Y-70706452D02*
X119157142Y-70782642D01*
X119157142Y-70782642D02*
X119157142Y-71011214D01*
X119157142Y-71011214D02*
X119119047Y-71087404D01*
X119119047Y-71087404D02*
X119080952Y-71125500D01*
X119080952Y-71125500D02*
X119004761Y-71163595D01*
X119004761Y-71163595D02*
X118852380Y-71163595D01*
X118852380Y-71163595D02*
X118776190Y-71125500D01*
X119842857Y-70630261D02*
X119842857Y-71163595D01*
X119652381Y-70325500D02*
X119461904Y-70896928D01*
X119461904Y-70896928D02*
X119957143Y-70896928D01*
D11*
X118012817Y-70723320D02*
X118393769Y-70723320D01*
X118155674Y-70389987D02*
X118155674Y-71247129D01*
X118155674Y-71247129D02*
X118203293Y-71342368D01*
X118203293Y-71342368D02*
X118298531Y-71389987D01*
X118298531Y-71389987D02*
X118393769Y-71389987D01*
X118727103Y-70723320D02*
X118727103Y-71723320D01*
X118727103Y-70770939D02*
X118822341Y-70723320D01*
X118822341Y-70723320D02*
X119012817Y-70723320D01*
X119012817Y-70723320D02*
X119108055Y-70770939D01*
X119108055Y-70770939D02*
X119155674Y-70818558D01*
X119155674Y-70818558D02*
X119203293Y-70913796D01*
X119203293Y-70913796D02*
X119203293Y-71199510D01*
X119203293Y-71199510D02*
X119155674Y-71294748D01*
X119155674Y-71294748D02*
X119108055Y-71342368D01*
X119108055Y-71342368D02*
X119012817Y-71389987D01*
X119012817Y-71389987D02*
X118822341Y-71389987D01*
X118822341Y-71389987D02*
X118727103Y-71342368D01*
X120060436Y-70723320D02*
X120060436Y-71389987D01*
X119822341Y-70342368D02*
X119584246Y-71056653D01*
X119584246Y-71056653D02*
X120203293Y-71056653D01*
X105446666Y-70585368D02*
X105446666Y-71299653D01*
X105446666Y-71299653D02*
X105399047Y-71442510D01*
X105399047Y-71442510D02*
X105303809Y-71537749D01*
X105303809Y-71537749D02*
X105160952Y-71585368D01*
X105160952Y-71585368D02*
X105065714Y-71585368D01*
X106351428Y-70918701D02*
X106351428Y-71585368D01*
X106113333Y-70537749D02*
X105875238Y-71252034D01*
X105875238Y-71252034D02*
X106494285Y-71252034D01*
X104846423Y-71061653D02*
X106713576Y-71061653D01*
X129690897Y-72530422D02*
X129119469Y-72530422D01*
X129405183Y-72530422D02*
X129405183Y-71530422D01*
X129405183Y-71530422D02*
X129309945Y-71673279D01*
X129309945Y-71673279D02*
X129214707Y-71768517D01*
X129214707Y-71768517D02*
X129119469Y-71816136D01*
X130548040Y-71863755D02*
X130548040Y-72530422D01*
X130119469Y-71863755D02*
X130119469Y-72387564D01*
X130119469Y-72387564D02*
X130167088Y-72482803D01*
X130167088Y-72482803D02*
X130262326Y-72530422D01*
X130262326Y-72530422D02*
X130405183Y-72530422D01*
X130405183Y-72530422D02*
X130500421Y-72482803D01*
X130500421Y-72482803D02*
X130548040Y-72435183D01*
X130881374Y-71863755D02*
X131262326Y-71863755D01*
X131024231Y-72530422D02*
X131024231Y-71673279D01*
X131024231Y-71673279D02*
X131071850Y-71578041D01*
X131071850Y-71578041D02*
X131167088Y-71530422D01*
X131167088Y-71530422D02*
X131262326Y-71530422D01*
D12*
X130009946Y-70613267D02*
X129971850Y-70651363D01*
X129971850Y-70651363D02*
X129857565Y-70689458D01*
X129857565Y-70689458D02*
X129781374Y-70689458D01*
X129781374Y-70689458D02*
X129667088Y-70651363D01*
X129667088Y-70651363D02*
X129590898Y-70575172D01*
X129590898Y-70575172D02*
X129552803Y-70498982D01*
X129552803Y-70498982D02*
X129514707Y-70346601D01*
X129514707Y-70346601D02*
X129514707Y-70232315D01*
X129514707Y-70232315D02*
X129552803Y-70079934D01*
X129552803Y-70079934D02*
X129590898Y-70003743D01*
X129590898Y-70003743D02*
X129667088Y-69927553D01*
X129667088Y-69927553D02*
X129781374Y-69889458D01*
X129781374Y-69889458D02*
X129857565Y-69889458D01*
X129857565Y-69889458D02*
X129971850Y-69927553D01*
X129971850Y-69927553D02*
X130009946Y-69965648D01*
X130771850Y-70689458D02*
X130314707Y-70689458D01*
X130543279Y-70689458D02*
X130543279Y-69889458D01*
X130543279Y-69889458D02*
X130467088Y-70003743D01*
X130467088Y-70003743D02*
X130390898Y-70079934D01*
X130390898Y-70079934D02*
X130314707Y-70118029D01*
D11*
X117459819Y-60033333D02*
X118174104Y-60033333D01*
X118174104Y-60033333D02*
X118316961Y-60080952D01*
X118316961Y-60080952D02*
X118412200Y-60176190D01*
X118412200Y-60176190D02*
X118459819Y-60319047D01*
X118459819Y-60319047D02*
X118459819Y-60414285D01*
X117459819Y-59128571D02*
X117459819Y-59319047D01*
X117459819Y-59319047D02*
X117507438Y-59414285D01*
X117507438Y-59414285D02*
X117555057Y-59461904D01*
X117555057Y-59461904D02*
X117697914Y-59557142D01*
X117697914Y-59557142D02*
X117888390Y-59604761D01*
X117888390Y-59604761D02*
X118269342Y-59604761D01*
X118269342Y-59604761D02*
X118364580Y-59557142D01*
X118364580Y-59557142D02*
X118412200Y-59509523D01*
X118412200Y-59509523D02*
X118459819Y-59414285D01*
X118459819Y-59414285D02*
X118459819Y-59223809D01*
X118459819Y-59223809D02*
X118412200Y-59128571D01*
X118412200Y-59128571D02*
X118364580Y-59080952D01*
X118364580Y-59080952D02*
X118269342Y-59033333D01*
X118269342Y-59033333D02*
X118031247Y-59033333D01*
X118031247Y-59033333D02*
X117936009Y-59080952D01*
X117936009Y-59080952D02*
X117888390Y-59128571D01*
X117888390Y-59128571D02*
X117840771Y-59223809D01*
X117840771Y-59223809D02*
X117840771Y-59414285D01*
X117840771Y-59414285D02*
X117888390Y-59509523D01*
X117888390Y-59509523D02*
X117936009Y-59557142D01*
X117936009Y-59557142D02*
X118031247Y-59604761D01*
X117959819Y-60633576D02*
X117959819Y-58808333D01*
X128433469Y-66358873D02*
X128433469Y-67073158D01*
X128433469Y-67073158D02*
X128385850Y-67216015D01*
X128385850Y-67216015D02*
X128290612Y-67311254D01*
X128290612Y-67311254D02*
X128147755Y-67358873D01*
X128147755Y-67358873D02*
X128052517Y-67358873D01*
X128862041Y-66454111D02*
X128909660Y-66406492D01*
X128909660Y-66406492D02*
X129004898Y-66358873D01*
X129004898Y-66358873D02*
X129242993Y-66358873D01*
X129242993Y-66358873D02*
X129338231Y-66406492D01*
X129338231Y-66406492D02*
X129385850Y-66454111D01*
X129385850Y-66454111D02*
X129433469Y-66549349D01*
X129433469Y-66549349D02*
X129433469Y-66644587D01*
X129433469Y-66644587D02*
X129385850Y-66787444D01*
X129385850Y-66787444D02*
X128814422Y-67358873D01*
X128814422Y-67358873D02*
X129433469Y-67358873D01*
X127833226Y-66858873D02*
X129658469Y-66858873D01*
X99406667Y-74344819D02*
X99406667Y-73344819D01*
X99406667Y-73344819D02*
X99787619Y-73344819D01*
X99787619Y-73344819D02*
X99882857Y-73392438D01*
X99882857Y-73392438D02*
X99930476Y-73440057D01*
X99930476Y-73440057D02*
X99978095Y-73535295D01*
X99978095Y-73535295D02*
X99978095Y-73678152D01*
X99978095Y-73678152D02*
X99930476Y-73773390D01*
X99930476Y-73773390D02*
X99882857Y-73821009D01*
X99882857Y-73821009D02*
X99787619Y-73868628D01*
X99787619Y-73868628D02*
X99406667Y-73868628D01*
X100406667Y-74344819D02*
X100406667Y-73678152D01*
X100406667Y-73344819D02*
X100359048Y-73392438D01*
X100359048Y-73392438D02*
X100406667Y-73440057D01*
X100406667Y-73440057D02*
X100454286Y-73392438D01*
X100454286Y-73392438D02*
X100406667Y-73344819D01*
X100406667Y-73344819D02*
X100406667Y-73440057D01*
X101311428Y-74297200D02*
X101216190Y-74344819D01*
X101216190Y-74344819D02*
X101025714Y-74344819D01*
X101025714Y-74344819D02*
X100930476Y-74297200D01*
X100930476Y-74297200D02*
X100882857Y-74249580D01*
X100882857Y-74249580D02*
X100835238Y-74154342D01*
X100835238Y-74154342D02*
X100835238Y-73868628D01*
X100835238Y-73868628D02*
X100882857Y-73773390D01*
X100882857Y-73773390D02*
X100930476Y-73725771D01*
X100930476Y-73725771D02*
X101025714Y-73678152D01*
X101025714Y-73678152D02*
X101216190Y-73678152D01*
X101216190Y-73678152D02*
X101311428Y-73725771D01*
X101882857Y-74344819D02*
X101787619Y-74297200D01*
X101787619Y-74297200D02*
X101740000Y-74249580D01*
X101740000Y-74249580D02*
X101692381Y-74154342D01*
X101692381Y-74154342D02*
X101692381Y-73868628D01*
X101692381Y-73868628D02*
X101740000Y-73773390D01*
X101740000Y-73773390D02*
X101787619Y-73725771D01*
X101787619Y-73725771D02*
X101882857Y-73678152D01*
X101882857Y-73678152D02*
X102025714Y-73678152D01*
X102025714Y-73678152D02*
X102120952Y-73725771D01*
X102120952Y-73725771D02*
X102168571Y-73773390D01*
X102168571Y-73773390D02*
X102216190Y-73868628D01*
X102216190Y-73868628D02*
X102216190Y-74154342D01*
X102216190Y-74154342D02*
X102168571Y-74249580D01*
X102168571Y-74249580D02*
X102120952Y-74297200D01*
X102120952Y-74297200D02*
X102025714Y-74344819D01*
X102025714Y-74344819D02*
X101882857Y-74344819D01*
X102406667Y-74440057D02*
X103168571Y-74440057D01*
X103930476Y-74344819D02*
X103359048Y-74344819D01*
X103644762Y-74344819D02*
X103644762Y-73344819D01*
X103644762Y-73344819D02*
X103549524Y-73487676D01*
X103549524Y-73487676D02*
X103454286Y-73582914D01*
X103454286Y-73582914D02*
X103359048Y-73630533D01*
X104359048Y-73963866D02*
X105120953Y-73963866D01*
X105644762Y-74344819D02*
X105835238Y-74344819D01*
X105835238Y-74344819D02*
X105930476Y-74297200D01*
X105930476Y-74297200D02*
X105978095Y-74249580D01*
X105978095Y-74249580D02*
X106073333Y-74106723D01*
X106073333Y-74106723D02*
X106120952Y-73916247D01*
X106120952Y-73916247D02*
X106120952Y-73535295D01*
X106120952Y-73535295D02*
X106073333Y-73440057D01*
X106073333Y-73440057D02*
X106025714Y-73392438D01*
X106025714Y-73392438D02*
X105930476Y-73344819D01*
X105930476Y-73344819D02*
X105740000Y-73344819D01*
X105740000Y-73344819D02*
X105644762Y-73392438D01*
X105644762Y-73392438D02*
X105597143Y-73440057D01*
X105597143Y-73440057D02*
X105549524Y-73535295D01*
X105549524Y-73535295D02*
X105549524Y-73773390D01*
X105549524Y-73773390D02*
X105597143Y-73868628D01*
X105597143Y-73868628D02*
X105644762Y-73916247D01*
X105644762Y-73916247D02*
X105740000Y-73963866D01*
X105740000Y-73963866D02*
X105930476Y-73963866D01*
X105930476Y-73963866D02*
X106025714Y-73916247D01*
X106025714Y-73916247D02*
X106073333Y-73868628D01*
X106073333Y-73868628D02*
X106120952Y-73773390D01*
X102194819Y-61293333D02*
X102909104Y-61293333D01*
X102909104Y-61293333D02*
X103051961Y-61340952D01*
X103051961Y-61340952D02*
X103147200Y-61436190D01*
X103147200Y-61436190D02*
X103194819Y-61579047D01*
X103194819Y-61579047D02*
X103194819Y-61674285D01*
X102194819Y-60912380D02*
X102194819Y-60293333D01*
X102194819Y-60293333D02*
X102575771Y-60626666D01*
X102575771Y-60626666D02*
X102575771Y-60483809D01*
X102575771Y-60483809D02*
X102623390Y-60388571D01*
X102623390Y-60388571D02*
X102671009Y-60340952D01*
X102671009Y-60340952D02*
X102766247Y-60293333D01*
X102766247Y-60293333D02*
X103004342Y-60293333D01*
X103004342Y-60293333D02*
X103099580Y-60340952D01*
X103099580Y-60340952D02*
X103147200Y-60388571D01*
X103147200Y-60388571D02*
X103194819Y-60483809D01*
X103194819Y-60483809D02*
X103194819Y-60769523D01*
X103194819Y-60769523D02*
X103147200Y-60864761D01*
X103147200Y-60864761D02*
X103099580Y-60912380D01*
X102694819Y-61893576D02*
X102694819Y-60068333D01*
X106944819Y-47838841D02*
X105944819Y-47838841D01*
X105944819Y-47838841D02*
X106659104Y-47505508D01*
X106659104Y-47505508D02*
X105944819Y-47172175D01*
X105944819Y-47172175D02*
X106944819Y-47172175D01*
X106421009Y-46362651D02*
X106468628Y-46219794D01*
X106468628Y-46219794D02*
X106516247Y-46172175D01*
X106516247Y-46172175D02*
X106611485Y-46124556D01*
X106611485Y-46124556D02*
X106754342Y-46124556D01*
X106754342Y-46124556D02*
X106849580Y-46172175D01*
X106849580Y-46172175D02*
X106897200Y-46219794D01*
X106897200Y-46219794D02*
X106944819Y-46315032D01*
X106944819Y-46315032D02*
X106944819Y-46695984D01*
X106944819Y-46695984D02*
X105944819Y-46695984D01*
X105944819Y-46695984D02*
X105944819Y-46362651D01*
X105944819Y-46362651D02*
X105992438Y-46267413D01*
X105992438Y-46267413D02*
X106040057Y-46219794D01*
X106040057Y-46219794D02*
X106135295Y-46172175D01*
X106135295Y-46172175D02*
X106230533Y-46172175D01*
X106230533Y-46172175D02*
X106325771Y-46219794D01*
X106325771Y-46219794D02*
X106373390Y-46267413D01*
X106373390Y-46267413D02*
X106421009Y-46362651D01*
X106421009Y-46362651D02*
X106421009Y-46695984D01*
X106944819Y-45124556D02*
X106468628Y-45457889D01*
X106944819Y-45695984D02*
X105944819Y-45695984D01*
X105944819Y-45695984D02*
X105944819Y-45315032D01*
X105944819Y-45315032D02*
X105992438Y-45219794D01*
X105992438Y-45219794D02*
X106040057Y-45172175D01*
X106040057Y-45172175D02*
X106135295Y-45124556D01*
X106135295Y-45124556D02*
X106278152Y-45124556D01*
X106278152Y-45124556D02*
X106373390Y-45172175D01*
X106373390Y-45172175D02*
X106421009Y-45219794D01*
X106421009Y-45219794D02*
X106468628Y-45315032D01*
X106468628Y-45315032D02*
X106468628Y-45695984D01*
X106944819Y-44172175D02*
X106944819Y-44743603D01*
X106944819Y-44457889D02*
X105944819Y-44457889D01*
X105944819Y-44457889D02*
X106087676Y-44553127D01*
X106087676Y-44553127D02*
X106182914Y-44648365D01*
X106182914Y-44648365D02*
X106230533Y-44743603D01*
X105944819Y-43553127D02*
X105944819Y-43457889D01*
X105944819Y-43457889D02*
X105992438Y-43362651D01*
X105992438Y-43362651D02*
X106040057Y-43315032D01*
X106040057Y-43315032D02*
X106135295Y-43267413D01*
X106135295Y-43267413D02*
X106325771Y-43219794D01*
X106325771Y-43219794D02*
X106563866Y-43219794D01*
X106563866Y-43219794D02*
X106754342Y-43267413D01*
X106754342Y-43267413D02*
X106849580Y-43315032D01*
X106849580Y-43315032D02*
X106897200Y-43362651D01*
X106897200Y-43362651D02*
X106944819Y-43457889D01*
X106944819Y-43457889D02*
X106944819Y-43553127D01*
X106944819Y-43553127D02*
X106897200Y-43648365D01*
X106897200Y-43648365D02*
X106849580Y-43695984D01*
X106849580Y-43695984D02*
X106754342Y-43743603D01*
X106754342Y-43743603D02*
X106563866Y-43791222D01*
X106563866Y-43791222D02*
X106325771Y-43791222D01*
X106325771Y-43791222D02*
X106135295Y-43743603D01*
X106135295Y-43743603D02*
X106040057Y-43695984D01*
X106040057Y-43695984D02*
X105992438Y-43648365D01*
X105992438Y-43648365D02*
X105944819Y-43553127D01*
X106040057Y-42838841D02*
X105992438Y-42791222D01*
X105992438Y-42791222D02*
X105944819Y-42695984D01*
X105944819Y-42695984D02*
X105944819Y-42457889D01*
X105944819Y-42457889D02*
X105992438Y-42362651D01*
X105992438Y-42362651D02*
X106040057Y-42315032D01*
X106040057Y-42315032D02*
X106135295Y-42267413D01*
X106135295Y-42267413D02*
X106230533Y-42267413D01*
X106230533Y-42267413D02*
X106373390Y-42315032D01*
X106373390Y-42315032D02*
X106944819Y-42886460D01*
X106944819Y-42886460D02*
X106944819Y-42267413D01*
X105944819Y-41648365D02*
X105944819Y-41553127D01*
X105944819Y-41553127D02*
X105992438Y-41457889D01*
X105992438Y-41457889D02*
X106040057Y-41410270D01*
X106040057Y-41410270D02*
X106135295Y-41362651D01*
X106135295Y-41362651D02*
X106325771Y-41315032D01*
X106325771Y-41315032D02*
X106563866Y-41315032D01*
X106563866Y-41315032D02*
X106754342Y-41362651D01*
X106754342Y-41362651D02*
X106849580Y-41410270D01*
X106849580Y-41410270D02*
X106897200Y-41457889D01*
X106897200Y-41457889D02*
X106944819Y-41553127D01*
X106944819Y-41553127D02*
X106944819Y-41648365D01*
X106944819Y-41648365D02*
X106897200Y-41743603D01*
X106897200Y-41743603D02*
X106849580Y-41791222D01*
X106849580Y-41791222D02*
X106754342Y-41838841D01*
X106754342Y-41838841D02*
X106563866Y-41886460D01*
X106563866Y-41886460D02*
X106325771Y-41886460D01*
X106325771Y-41886460D02*
X106135295Y-41838841D01*
X106135295Y-41838841D02*
X106040057Y-41791222D01*
X106040057Y-41791222D02*
X105992438Y-41743603D01*
X105992438Y-41743603D02*
X105944819Y-41648365D01*
X105944819Y-41029317D02*
X106944819Y-40695984D01*
X106944819Y-40695984D02*
X105944819Y-40362651D01*
X106944819Y-39553127D02*
X106944819Y-40029317D01*
X106944819Y-40029317D02*
X105944819Y-40029317D01*
X108909819Y-52818507D02*
X107909819Y-52818507D01*
X107909819Y-52818507D02*
X107909819Y-52580412D01*
X107909819Y-52580412D02*
X107957438Y-52437555D01*
X107957438Y-52437555D02*
X108052676Y-52342317D01*
X108052676Y-52342317D02*
X108147914Y-52294698D01*
X108147914Y-52294698D02*
X108338390Y-52247079D01*
X108338390Y-52247079D02*
X108481247Y-52247079D01*
X108481247Y-52247079D02*
X108671723Y-52294698D01*
X108671723Y-52294698D02*
X108766961Y-52342317D01*
X108766961Y-52342317D02*
X108862200Y-52437555D01*
X108862200Y-52437555D02*
X108909819Y-52580412D01*
X108909819Y-52580412D02*
X108909819Y-52818507D01*
X108909819Y-51294698D02*
X108909819Y-51866126D01*
X108909819Y-51580412D02*
X107909819Y-51580412D01*
X107909819Y-51580412D02*
X108052676Y-51675650D01*
X108052676Y-51675650D02*
X108147914Y-51770888D01*
X108147914Y-51770888D02*
X108195533Y-51866126D01*
X138150057Y-57428094D02*
X138102438Y-57380475D01*
X138102438Y-57380475D02*
X138054819Y-57285237D01*
X138054819Y-57285237D02*
X138054819Y-57047142D01*
X138054819Y-57047142D02*
X138102438Y-56951904D01*
X138102438Y-56951904D02*
X138150057Y-56904285D01*
X138150057Y-56904285D02*
X138245295Y-56856666D01*
X138245295Y-56856666D02*
X138340533Y-56856666D01*
X138340533Y-56856666D02*
X138483390Y-56904285D01*
X138483390Y-56904285D02*
X139054819Y-57475713D01*
X139054819Y-57475713D02*
X139054819Y-56856666D01*
X138150057Y-56475713D02*
X138102438Y-56428094D01*
X138102438Y-56428094D02*
X138054819Y-56332856D01*
X138054819Y-56332856D02*
X138054819Y-56094761D01*
X138054819Y-56094761D02*
X138102438Y-55999523D01*
X138102438Y-55999523D02*
X138150057Y-55951904D01*
X138150057Y-55951904D02*
X138245295Y-55904285D01*
X138245295Y-55904285D02*
X138340533Y-55904285D01*
X138340533Y-55904285D02*
X138483390Y-55951904D01*
X138483390Y-55951904D02*
X139054819Y-56523332D01*
X139054819Y-56523332D02*
X139054819Y-55904285D01*
X139054819Y-55332856D02*
X139007200Y-55428094D01*
X139007200Y-55428094D02*
X138959580Y-55475713D01*
X138959580Y-55475713D02*
X138864342Y-55523332D01*
X138864342Y-55523332D02*
X138578628Y-55523332D01*
X138578628Y-55523332D02*
X138483390Y-55475713D01*
X138483390Y-55475713D02*
X138435771Y-55428094D01*
X138435771Y-55428094D02*
X138388152Y-55332856D01*
X138388152Y-55332856D02*
X138388152Y-55189999D01*
X138388152Y-55189999D02*
X138435771Y-55094761D01*
X138435771Y-55094761D02*
X138483390Y-55047142D01*
X138483390Y-55047142D02*
X138578628Y-54999523D01*
X138578628Y-54999523D02*
X138864342Y-54999523D01*
X138864342Y-54999523D02*
X138959580Y-55047142D01*
X138959580Y-55047142D02*
X139007200Y-55094761D01*
X139007200Y-55094761D02*
X139054819Y-55189999D01*
X139054819Y-55189999D02*
X139054819Y-55332856D01*
X139054819Y-54570951D02*
X138054819Y-54570951D01*
X139054819Y-54142380D02*
X138531009Y-54142380D01*
X138531009Y-54142380D02*
X138435771Y-54189999D01*
X138435771Y-54189999D02*
X138388152Y-54285237D01*
X138388152Y-54285237D02*
X138388152Y-54428094D01*
X138388152Y-54428094D02*
X138435771Y-54523332D01*
X138435771Y-54523332D02*
X138483390Y-54570951D01*
X139054819Y-53666189D02*
X138388152Y-53666189D01*
X138483390Y-53666189D02*
X138435771Y-53618570D01*
X138435771Y-53618570D02*
X138388152Y-53523332D01*
X138388152Y-53523332D02*
X138388152Y-53380475D01*
X138388152Y-53380475D02*
X138435771Y-53285237D01*
X138435771Y-53285237D02*
X138531009Y-53237618D01*
X138531009Y-53237618D02*
X139054819Y-53237618D01*
X138531009Y-53237618D02*
X138435771Y-53189999D01*
X138435771Y-53189999D02*
X138388152Y-53094761D01*
X138388152Y-53094761D02*
X138388152Y-52951904D01*
X138388152Y-52951904D02*
X138435771Y-52856665D01*
X138435771Y-52856665D02*
X138531009Y-52809046D01*
X138531009Y-52809046D02*
X139054819Y-52809046D01*
X139007200Y-52380475D02*
X139054819Y-52285237D01*
X139054819Y-52285237D02*
X139054819Y-52094761D01*
X139054819Y-52094761D02*
X139007200Y-51999523D01*
X139007200Y-51999523D02*
X138911961Y-51951904D01*
X138911961Y-51951904D02*
X138864342Y-51951904D01*
X138864342Y-51951904D02*
X138769104Y-51999523D01*
X138769104Y-51999523D02*
X138721485Y-52094761D01*
X138721485Y-52094761D02*
X138721485Y-52237618D01*
X138721485Y-52237618D02*
X138673866Y-52332856D01*
X138673866Y-52332856D02*
X138578628Y-52380475D01*
X138578628Y-52380475D02*
X138531009Y-52380475D01*
X138531009Y-52380475D02*
X138435771Y-52332856D01*
X138435771Y-52332856D02*
X138388152Y-52237618D01*
X138388152Y-52237618D02*
X138388152Y-52094761D01*
X138388152Y-52094761D02*
X138435771Y-51999523D01*
D12*
X136123855Y-54920832D02*
X135742902Y-55187499D01*
X136123855Y-55377975D02*
X135323855Y-55377975D01*
X135323855Y-55377975D02*
X135323855Y-55073213D01*
X135323855Y-55073213D02*
X135361950Y-54997023D01*
X135361950Y-54997023D02*
X135400045Y-54958928D01*
X135400045Y-54958928D02*
X135476236Y-54920832D01*
X135476236Y-54920832D02*
X135590521Y-54920832D01*
X135590521Y-54920832D02*
X135666712Y-54958928D01*
X135666712Y-54958928D02*
X135704807Y-54997023D01*
X135704807Y-54997023D02*
X135742902Y-55073213D01*
X135742902Y-55073213D02*
X135742902Y-55377975D01*
X136123855Y-54158928D02*
X136123855Y-54616071D01*
X136123855Y-54387499D02*
X135323855Y-54387499D01*
X135323855Y-54387499D02*
X135438140Y-54463690D01*
X135438140Y-54463690D02*
X135514331Y-54539880D01*
X135514331Y-54539880D02*
X135552426Y-54616071D01*
D11*
X122229972Y-74677140D02*
X121896639Y-74677140D01*
X121896639Y-75200950D02*
X121896639Y-74200950D01*
X121896639Y-74200950D02*
X122372829Y-74200950D01*
X123087115Y-74677140D02*
X122753782Y-74677140D01*
X122753782Y-75200950D02*
X122753782Y-74200950D01*
X122753782Y-74200950D02*
X123229972Y-74200950D01*
X124182353Y-75105711D02*
X124134734Y-75153331D01*
X124134734Y-75153331D02*
X123991877Y-75200950D01*
X123991877Y-75200950D02*
X123896639Y-75200950D01*
X123896639Y-75200950D02*
X123753782Y-75153331D01*
X123753782Y-75153331D02*
X123658544Y-75058092D01*
X123658544Y-75058092D02*
X123610925Y-74962854D01*
X123610925Y-74962854D02*
X123563306Y-74772378D01*
X123563306Y-74772378D02*
X123563306Y-74629521D01*
X123563306Y-74629521D02*
X123610925Y-74439045D01*
X123610925Y-74439045D02*
X123658544Y-74343807D01*
X123658544Y-74343807D02*
X123753782Y-74248569D01*
X123753782Y-74248569D02*
X123896639Y-74200950D01*
X123896639Y-74200950D02*
X123991877Y-74200950D01*
X123991877Y-74200950D02*
X124134734Y-74248569D01*
X124134734Y-74248569D02*
X124182353Y-74296188D01*
X124563306Y-74296188D02*
X124610925Y-74248569D01*
X124610925Y-74248569D02*
X124706163Y-74200950D01*
X124706163Y-74200950D02*
X124944258Y-74200950D01*
X124944258Y-74200950D02*
X125039496Y-74248569D01*
X125039496Y-74248569D02*
X125087115Y-74296188D01*
X125087115Y-74296188D02*
X125134734Y-74391426D01*
X125134734Y-74391426D02*
X125134734Y-74486664D01*
X125134734Y-74486664D02*
X125087115Y-74629521D01*
X125087115Y-74629521D02*
X124515687Y-75200950D01*
X124515687Y-75200950D02*
X125134734Y-75200950D01*
X125515687Y-74915235D02*
X125991877Y-74915235D01*
X125420449Y-75200950D02*
X125753782Y-74200950D01*
X125753782Y-74200950D02*
X126087115Y-75200950D01*
X126325211Y-74200950D02*
X126944258Y-74200950D01*
X126944258Y-74200950D02*
X126610925Y-74581902D01*
X126610925Y-74581902D02*
X126753782Y-74581902D01*
X126753782Y-74581902D02*
X126849020Y-74629521D01*
X126849020Y-74629521D02*
X126896639Y-74677140D01*
X126896639Y-74677140D02*
X126944258Y-74772378D01*
X126944258Y-74772378D02*
X126944258Y-75010473D01*
X126944258Y-75010473D02*
X126896639Y-75105711D01*
X126896639Y-75105711D02*
X126849020Y-75153331D01*
X126849020Y-75153331D02*
X126753782Y-75200950D01*
X126753782Y-75200950D02*
X126468068Y-75200950D01*
X126468068Y-75200950D02*
X126372830Y-75153331D01*
X126372830Y-75153331D02*
X126325211Y-75105711D01*
X127325211Y-74296188D02*
X127372830Y-74248569D01*
X127372830Y-74248569D02*
X127468068Y-74200950D01*
X127468068Y-74200950D02*
X127706163Y-74200950D01*
X127706163Y-74200950D02*
X127801401Y-74248569D01*
X127801401Y-74248569D02*
X127849020Y-74296188D01*
X127849020Y-74296188D02*
X127896639Y-74391426D01*
X127896639Y-74391426D02*
X127896639Y-74486664D01*
X127896639Y-74486664D02*
X127849020Y-74629521D01*
X127849020Y-74629521D02*
X127277592Y-75200950D01*
X127277592Y-75200950D02*
X127896639Y-75200950D01*
X128325211Y-74819997D02*
X129087116Y-74819997D01*
X129991877Y-74534283D02*
X129991877Y-75200950D01*
X129753782Y-74153331D02*
X129515687Y-74867616D01*
X129515687Y-74867616D02*
X130134734Y-74867616D01*
X130706163Y-74200950D02*
X130801401Y-74200950D01*
X130801401Y-74200950D02*
X130896639Y-74248569D01*
X130896639Y-74248569D02*
X130944258Y-74296188D01*
X130944258Y-74296188D02*
X130991877Y-74391426D01*
X130991877Y-74391426D02*
X131039496Y-74581902D01*
X131039496Y-74581902D02*
X131039496Y-74819997D01*
X131039496Y-74819997D02*
X130991877Y-75010473D01*
X130991877Y-75010473D02*
X130944258Y-75105711D01*
X130944258Y-75105711D02*
X130896639Y-75153331D01*
X130896639Y-75153331D02*
X130801401Y-75200950D01*
X130801401Y-75200950D02*
X130706163Y-75200950D01*
X130706163Y-75200950D02*
X130610925Y-75153331D01*
X130610925Y-75153331D02*
X130563306Y-75105711D01*
X130563306Y-75105711D02*
X130515687Y-75010473D01*
X130515687Y-75010473D02*
X130468068Y-74819997D01*
X130468068Y-74819997D02*
X130468068Y-74581902D01*
X130468068Y-74581902D02*
X130515687Y-74391426D01*
X130515687Y-74391426D02*
X130563306Y-74296188D01*
X130563306Y-74296188D02*
X130610925Y-74248569D01*
X130610925Y-74248569D02*
X130706163Y-74200950D01*
X131468068Y-74819997D02*
X132229973Y-74819997D01*
X132563306Y-74200950D02*
X133134734Y-74200950D01*
X132849020Y-75200950D02*
X132849020Y-74200950D01*
X128648279Y-74745422D02*
X128743517Y-74745422D01*
X128743517Y-74745422D02*
X128838755Y-74793041D01*
X128838755Y-74793041D02*
X128886374Y-74840660D01*
X128886374Y-74840660D02*
X128933993Y-74935898D01*
X128933993Y-74935898D02*
X128981612Y-75126374D01*
X128981612Y-75126374D02*
X128981612Y-75364469D01*
X128981612Y-75364469D02*
X128933993Y-75554945D01*
X128933993Y-75554945D02*
X128886374Y-75650183D01*
X128886374Y-75650183D02*
X128838755Y-75697803D01*
X128838755Y-75697803D02*
X128743517Y-75745422D01*
X128743517Y-75745422D02*
X128648279Y-75745422D01*
X128648279Y-75745422D02*
X128553041Y-75697803D01*
X128553041Y-75697803D02*
X128505422Y-75650183D01*
X128505422Y-75650183D02*
X128457803Y-75554945D01*
X128457803Y-75554945D02*
X128410184Y-75364469D01*
X128410184Y-75364469D02*
X128410184Y-75126374D01*
X128410184Y-75126374D02*
X128457803Y-74935898D01*
X128457803Y-74935898D02*
X128505422Y-74840660D01*
X128505422Y-74840660D02*
X128553041Y-74793041D01*
X128553041Y-74793041D02*
X128648279Y-74745422D01*
X129410184Y-75650183D02*
X129457803Y-75697803D01*
X129457803Y-75697803D02*
X129410184Y-75745422D01*
X129410184Y-75745422D02*
X129362565Y-75697803D01*
X129362565Y-75697803D02*
X129410184Y-75650183D01*
X129410184Y-75650183D02*
X129410184Y-75745422D01*
X130410183Y-75745422D02*
X129838755Y-75745422D01*
X130124469Y-75745422D02*
X130124469Y-74745422D01*
X130124469Y-74745422D02*
X130029231Y-74888279D01*
X130029231Y-74888279D02*
X129933993Y-74983517D01*
X129933993Y-74983517D02*
X129838755Y-75031136D01*
X131267326Y-75078755D02*
X131267326Y-75745422D01*
X130838755Y-75078755D02*
X130838755Y-75602564D01*
X130838755Y-75602564D02*
X130886374Y-75697803D01*
X130886374Y-75697803D02*
X130981612Y-75745422D01*
X130981612Y-75745422D02*
X131124469Y-75745422D01*
X131124469Y-75745422D02*
X131219707Y-75697803D01*
X131219707Y-75697803D02*
X131267326Y-75650183D01*
X131600660Y-75078755D02*
X131981612Y-75078755D01*
X131743517Y-75745422D02*
X131743517Y-74888279D01*
X131743517Y-74888279D02*
X131791136Y-74793041D01*
X131791136Y-74793041D02*
X131886374Y-74745422D01*
X131886374Y-74745422D02*
X131981612Y-74745422D01*
D12*
X130014946Y-73728267D02*
X129976850Y-73766363D01*
X129976850Y-73766363D02*
X129862565Y-73804458D01*
X129862565Y-73804458D02*
X129786374Y-73804458D01*
X129786374Y-73804458D02*
X129672088Y-73766363D01*
X129672088Y-73766363D02*
X129595898Y-73690172D01*
X129595898Y-73690172D02*
X129557803Y-73613982D01*
X129557803Y-73613982D02*
X129519707Y-73461601D01*
X129519707Y-73461601D02*
X129519707Y-73347315D01*
X129519707Y-73347315D02*
X129557803Y-73194934D01*
X129557803Y-73194934D02*
X129595898Y-73118743D01*
X129595898Y-73118743D02*
X129672088Y-73042553D01*
X129672088Y-73042553D02*
X129786374Y-73004458D01*
X129786374Y-73004458D02*
X129862565Y-73004458D01*
X129862565Y-73004458D02*
X129976850Y-73042553D01*
X129976850Y-73042553D02*
X130014946Y-73080648D01*
X130319707Y-73080648D02*
X130357803Y-73042553D01*
X130357803Y-73042553D02*
X130433993Y-73004458D01*
X130433993Y-73004458D02*
X130624469Y-73004458D01*
X130624469Y-73004458D02*
X130700660Y-73042553D01*
X130700660Y-73042553D02*
X130738755Y-73080648D01*
X130738755Y-73080648D02*
X130776850Y-73156839D01*
X130776850Y-73156839D02*
X130776850Y-73233029D01*
X130776850Y-73233029D02*
X130738755Y-73347315D01*
X130738755Y-73347315D02*
X130281612Y-73804458D01*
X130281612Y-73804458D02*
X130776850Y-73804458D01*
D13*
X109090000Y-72350549D02*
X104010000Y-72350549D01*
X104010000Y-72450549D02*
G75*
G02*
X104010000Y-72350549I0J50000D01*
G01*
X104010000Y-72450549D02*
X109090000Y-72450549D01*
X109090000Y-72450549D02*
G75*
G03*
X109090000Y-72350549I0J50000D01*
G01*
X109040000Y-69860549D02*
X109040000Y-72400549D01*
X109140000Y-72400549D02*
G75*
G02*
X109040000Y-72400549I-50000J0D01*
G01*
X109140000Y-72400549D02*
X109140000Y-69860549D01*
X109140000Y-69860549D02*
G75*
G03*
X109040000Y-69860549I-50000J0D01*
G01*
X104645000Y-69910549D02*
X109090000Y-69910549D01*
X109090000Y-69810549D02*
G75*
G02*
X109090000Y-69910549I0J-50000D01*
G01*
X109090000Y-69810549D02*
X104645000Y-69810549D01*
X104645000Y-69810549D02*
G75*
G03*
X104645000Y-69910549I0J-50000D01*
G01*
X104060000Y-72400549D02*
X104060000Y-70495549D01*
X103960000Y-70495549D02*
G75*
G02*
X104060000Y-70495549I50000J0D01*
G01*
X103960000Y-70495549D02*
X103960000Y-72400549D01*
X103960000Y-72400549D02*
G75*
G03*
X104060000Y-72400549I50000J0D01*
G01*
X104045355Y-70530904D02*
X104680355Y-69895904D01*
X104609645Y-69825194D02*
G75*
G02*
X104680355Y-69895904I35355J-35355D01*
G01*
X104609645Y-69825194D02*
X103974645Y-70460194D01*
X103974645Y-70460194D02*
G75*
G03*
X104045355Y-70530904I35355J-35355D01*
G01*
%TO.C,C1*%
X131743279Y-71125603D02*
X131743279Y-69525603D01*
X131743279Y-69525603D02*
X128943279Y-69525603D01*
X128943279Y-69525603D02*
X128543279Y-69925603D01*
X128543279Y-71125603D02*
X131743279Y-71125603D01*
X128543279Y-69925603D02*
X128543279Y-71125603D01*
X116735000Y-54670000D02*
X118640000Y-54670000D01*
X118640000Y-54570000D02*
G75*
G02*
X118640000Y-54670000I0J-50000D01*
G01*
X118640000Y-54570000D02*
X116735000Y-54570000D01*
X116735000Y-54570000D02*
G75*
G03*
X116735000Y-54670000I0J-50000D01*
G01*
X116785000Y-64780000D02*
X116785000Y-54620000D01*
X116685000Y-54620000D02*
G75*
G02*
X116785000Y-54620000I50000J0D01*
G01*
X116685000Y-54620000D02*
X116685000Y-64780000D01*
X116685000Y-64780000D02*
G75*
G03*
X116785000Y-64780000I50000J0D01*
G01*
X118604645Y-54655355D02*
X119239645Y-55290355D01*
X119310355Y-55219645D02*
G75*
G02*
X119239645Y-55290355I-35355J-35355D01*
G01*
X119310355Y-55219645D02*
X118675355Y-54584645D01*
X118675355Y-54584645D02*
G75*
G03*
X118604645Y-54655355I-35355J-35355D01*
G01*
X119225000Y-55255000D02*
X119225000Y-64780000D01*
X119325000Y-64780000D02*
G75*
G02*
X119225000Y-64780000I-50000J0D01*
G01*
X119325000Y-64780000D02*
X119325000Y-55255000D01*
X119325000Y-55255000D02*
G75*
G03*
X119225000Y-55255000I-50000J0D01*
G01*
X119275000Y-64730000D02*
X116735000Y-64730000D01*
X116735000Y-64830000D02*
G75*
G02*
X116735000Y-64730000I0J50000D01*
G01*
X116735000Y-64830000D02*
X119275000Y-64830000D01*
X119275000Y-64830000D02*
G75*
G03*
X119275000Y-64730000I0J50000D01*
G01*
X121182158Y-66304409D02*
X121817158Y-65669409D01*
X121746448Y-65598699D02*
G75*
G02*
X121817158Y-65669409I35355J-35355D01*
G01*
X121746448Y-65598699D02*
X121111448Y-66233699D01*
X121111448Y-66233699D02*
G75*
G03*
X121182158Y-66304409I35355J-35355D01*
G01*
X121196803Y-68174054D02*
X121196803Y-66269054D01*
X121096803Y-66269054D02*
G75*
G02*
X121196803Y-66269054I50000J0D01*
G01*
X121096803Y-66269054D02*
X121096803Y-68174054D01*
X121096803Y-68174054D02*
G75*
G03*
X121196803Y-68174054I50000J0D01*
G01*
X121781803Y-65684054D02*
X136386803Y-65684054D01*
X136386803Y-65584054D02*
G75*
G02*
X136386803Y-65684054I0J-50000D01*
G01*
X136386803Y-65584054D02*
X121781803Y-65584054D01*
X121781803Y-65584054D02*
G75*
G03*
X121781803Y-65684054I0J-50000D01*
G01*
X136336803Y-65634054D02*
X136336803Y-68174054D01*
X136436803Y-68174054D02*
G75*
G02*
X136336803Y-68174054I-50000J0D01*
G01*
X136436803Y-68174054D02*
X136436803Y-65634054D01*
X136436803Y-65634054D02*
G75*
G03*
X136336803Y-65634054I-50000J0D01*
G01*
X136386803Y-68124054D02*
X121146803Y-68124054D01*
X121146803Y-68224054D02*
G75*
G02*
X121146803Y-68124054I0J50000D01*
G01*
X121146803Y-68224054D02*
X136386803Y-68224054D01*
X136386803Y-68224054D02*
G75*
G03*
X136386803Y-68124054I0J50000D01*
G01*
X101470000Y-49580000D02*
X103375000Y-49580000D01*
X103375000Y-49480000D02*
G75*
G02*
X103375000Y-49580000I0J-50000D01*
G01*
X103375000Y-49480000D02*
X101470000Y-49480000D01*
X101470000Y-49480000D02*
G75*
G03*
X101470000Y-49580000I0J-50000D01*
G01*
X101520000Y-72390000D02*
X101520000Y-49530000D01*
X101420000Y-49530000D02*
G75*
G02*
X101520000Y-49530000I50000J0D01*
G01*
X101420000Y-49530000D02*
X101420000Y-72390000D01*
X101420000Y-72390000D02*
G75*
G03*
X101520000Y-72390000I50000J0D01*
G01*
X103339645Y-49565355D02*
X103974645Y-50200355D01*
X104045355Y-50129645D02*
G75*
G02*
X103974645Y-50200355I-35355J-35355D01*
G01*
X104045355Y-50129645D02*
X103410355Y-49494645D01*
X103410355Y-49494645D02*
G75*
G03*
X103339645Y-49565355I-35355J-35355D01*
G01*
X103960000Y-50165000D02*
X103960000Y-72390000D01*
X104060000Y-72390000D02*
G75*
G02*
X103960000Y-72390000I-50000J0D01*
G01*
X104060000Y-72390000D02*
X104060000Y-50165000D01*
X104060000Y-50165000D02*
G75*
G03*
X103960000Y-50165000I-50000J0D01*
G01*
X104010000Y-72340000D02*
X101470000Y-72340000D01*
X101470000Y-72440000D02*
G75*
G02*
X101470000Y-72340000I0J50000D01*
G01*
X101470000Y-72440000D02*
X104010000Y-72440000D01*
X104010000Y-72440000D02*
G75*
G03*
X104010000Y-72340000I0J50000D01*
G01*
%TO.C,D1*%
X105650000Y-50807413D02*
X107450000Y-50807413D01*
X105650000Y-53607413D02*
X105650000Y-50807413D01*
X106150000Y-52457413D02*
X106550000Y-51857413D01*
X106550000Y-51457413D02*
X106550000Y-51857413D01*
X106550000Y-51857413D02*
X106000000Y-51857413D01*
X106550000Y-51857413D02*
X106950000Y-52457413D01*
X106550000Y-51857413D02*
X107100000Y-51857413D01*
X106550000Y-52457413D02*
X106550000Y-52957413D01*
X106950000Y-52457413D02*
X106150000Y-52457413D01*
X107450000Y-50807413D02*
X107450000Y-53607413D01*
X107450000Y-53607413D02*
X105650000Y-53607413D01*
%TO.C,R1*%
X134960000Y-53187500D02*
X136560000Y-53187500D01*
X134960000Y-56387500D02*
X134960000Y-53187500D01*
X136560000Y-53187500D02*
X136560000Y-56387500D01*
X136560000Y-56387500D02*
X134960000Y-56387500D01*
%TO.C,J1*%
X110304258Y-76961131D02*
X137404258Y-76961131D01*
X110304258Y-80261131D02*
X110304258Y-76961131D01*
X137404258Y-76961131D02*
X137404258Y-80261131D01*
X137404258Y-80261131D02*
X110304258Y-80261131D01*
D14*
X114204258Y-81361131D02*
G75*
G02*
X114004258Y-81361131I-100000J0D01*
G01*
X114004258Y-81361131D02*
G75*
G02*
X114204258Y-81361131I100000J0D01*
G01*
D13*
%TO.C,C2*%
X128548279Y-72640603D02*
X131748279Y-72640603D01*
X128548279Y-74240603D02*
X128548279Y-72640603D01*
X131748279Y-72640603D02*
X131748279Y-74240603D01*
X131748279Y-74240603D02*
X128548279Y-74240603D01*
%TD*%
X103960000Y-69740446D02*
X109220366Y-72450549D01*
X103960000Y-72450549D02*
X109220366Y-69740446D01*
X103970735Y-77344243D02*
X109231101Y-80054346D01*
X103970735Y-80054346D02*
X109231101Y-77344243D01*
X109004092Y-52033053D02*
X114264458Y-54743156D01*
X109004092Y-54743156D02*
X114264458Y-52033053D01*
X116180000Y-54065000D02*
X119780000Y-65315000D01*
X116180000Y-65315000D02*
X119780000Y-54065000D01*
X120591803Y-65129054D02*
X136891803Y-68729054D01*
X120591803Y-68729054D02*
X136891803Y-65129054D01*
X100914989Y-48974989D02*
X104130000Y-72925000D01*
X100914989Y-72925000D02*
X104130000Y-48974989D01*
M02*
