M48
; DRILL file {KiCad 9.0.0} date 2025-05-12T14:45:11+0100
; FORMAT={-:-/ absolute / metric / decimal}
; #@! TF.CreationDate,2025-05-12T14:45:11+01:00
; #@! TF.GenerationSoftware,Kicad,Pcbnew,9.0.0
; #@! TF.FileFunction,Plated,1,2,PTH
FMAT,2
METRIC
; #@! TA.AperFunction,Plated,PTH,ViaDrill
T1C0.300
; #@! TA.AperFunction,Plated,PTH,ComponentDrill
T2C1.000
%
G90
G05
T1
X112.054Y-78.615
X116.1Y-81.5
X116.4Y-74.0
X117.1Y-78.6
X119.1Y-74.2
X119.1Y-75.6
X119.1Y-81.5
X121.6Y-78.6
X122.0Y-69.35
X122.0Y-70.9
X127.6Y-78.6
X133.1Y-78.6
X135.4Y-78.6
T2
X102.74Y-50.8
X102.74Y-53.34
X102.74Y-55.88
X102.74Y-58.42
X102.74Y-60.96
X102.74Y-63.5
X102.74Y-66.04
X102.74Y-68.58
X102.74Y-71.12
X105.28Y-71.131
X105.291Y-78.664
X107.82Y-71.131
X107.831Y-78.664
X118.005Y-55.89
X118.005Y-58.43
X118.005Y-60.97
X118.005Y-63.51
X122.417Y-66.904
X124.957Y-66.904
X127.497Y-66.904
X130.037Y-66.904
X130.727Y-51.179
X132.577Y-66.904
X133.267Y-51.179
X135.117Y-66.904
M30
