%TF.GenerationSoftware,KiCad,Pcbnew,9.0.0*%
%TF.CreationDate,2025-05-12T14:44:42+01:00*%
%TF.ProjectId,KiCAD_uPicomac3_2,4b694341-445f-4755-9069-636f6d616333,rev?*%
%TF.SameCoordinates,Original*%
%TF.FileFunction,Paste,Top*%
%TF.FilePolarity,Positive*%
%FSLAX46Y46*%
G04 Gerber Fmt 4.6, Leading zero omitted, Abs format (unit mm)*
G04 Created by KiCad (PCBNEW 9.0.0) date 2025-05-12 14:44:42*
%MOMM*%
%LPD*%
G01*
G04 APERTURE LIST*
G04 Aperture macros list*
%AMRoundRect*
0 Rectangle with rounded corners*
0 $1 Rounding radius*
0 $2 $3 $4 $5 $6 $7 $8 $9 X,Y pos of 4 corners*
0 Add a 4 corners polygon primitive as box body*
4,1,4,$2,$3,$4,$5,$6,$7,$8,$9,$2,$3,0*
0 Add four circle primitives for the rounded corners*
1,1,$1+$1,$2,$3*
1,1,$1+$1,$4,$5*
1,1,$1+$1,$6,$7*
1,1,$1+$1,$8,$9*
0 Add four rect primitives between the rounded corners*
20,1,$1+$1,$2,$3,$4,$5,0*
20,1,$1+$1,$4,$5,$6,$7,0*
20,1,$1+$1,$6,$7,$8,$9,0*
20,1,$1+$1,$8,$9,$2,$3,0*%
G04 Aperture macros list end*
%ADD10R,0.600000X1.500000*%
%ADD11R,2.000000X3.600000*%
%ADD12RoundRect,0.250000X-0.537500X-0.425000X0.537500X-0.425000X0.537500X0.425000X-0.537500X0.425000X0*%
%ADD13RoundRect,0.250000X-0.412500X-0.650000X0.412500X-0.650000X0.412500X0.650000X-0.412500X0.650000X0*%
%ADD14RoundRect,0.250000X-0.300000X-0.300000X0.300000X-0.300000X0.300000X0.300000X-0.300000X0.300000X0*%
%ADD15RoundRect,0.250000X-0.625000X0.312500X-0.625000X-0.312500X0.625000X-0.312500X0.625000X0.312500X0*%
G04 APERTURE END LIST*
D10*
%TO.C,J1*%
X114104258Y-80011131D03*
X114604258Y-77211131D03*
X115104258Y-80011131D03*
X115604258Y-77211131D03*
X116104258Y-80011131D03*
X116604258Y-77211131D03*
X117104258Y-80011131D03*
X117604258Y-77211131D03*
X118104258Y-80011131D03*
X118604258Y-77211131D03*
X119104258Y-80011131D03*
X119604258Y-77211131D03*
X120104258Y-80011131D03*
X120604258Y-77211131D03*
X121104258Y-80011131D03*
X121604258Y-77211131D03*
X122104258Y-80011131D03*
X122604258Y-77211131D03*
X123104258Y-80011131D03*
X123604258Y-77211131D03*
X124104258Y-80011131D03*
X124604258Y-77211131D03*
X125104258Y-80011131D03*
X125604258Y-77211131D03*
X126104258Y-80011131D03*
X126604258Y-77211131D03*
X127104258Y-80011131D03*
X127604258Y-77211131D03*
X128104258Y-80011131D03*
X128604258Y-77211131D03*
X129104258Y-80011131D03*
X129604258Y-77211131D03*
X130104258Y-80011131D03*
X130604258Y-77211131D03*
X131104258Y-80011131D03*
X131604258Y-77211131D03*
X132104258Y-80011131D03*
X132604258Y-77211131D03*
X133104258Y-80011131D03*
X133604258Y-77211131D03*
D11*
X112226408Y-78614928D03*
X135456886Y-78610777D03*
%TD*%
D12*
%TO.C,C1*%
X128705779Y-70325603D03*
X131580779Y-70325603D03*
%TD*%
D13*
%TO.C,C2*%
X128585779Y-73440603D03*
X131710779Y-73440603D03*
%TD*%
D14*
%TO.C,D1*%
X130550000Y-53710000D03*
X133350000Y-53710000D03*
%TD*%
D15*
%TO.C,R1*%
X123060000Y-50816274D03*
X123060000Y-53741274D03*
%TD*%
M02*
