%TF.GenerationSoftware,KiCad,Pcbnew,9.0.0*%
%TF.CreationDate,2025-05-12T14:44:42+01:00*%
%TF.ProjectId,KiCAD_uPicomac3_2,4b694341-445f-4755-9069-636f6d616333,rev?*%
%TF.SameCoordinates,Original*%
%TF.FileFunction,Copper,L2,Bot*%
%TF.FilePolarity,Positive*%
%FSLAX46Y46*%
G04 Gerber Fmt 4.6, Leading zero omitted, Abs format (unit mm)*
G04 Created by KiCad (PCBNEW 9.0.0) date 2025-05-12 14:44:42*
%MOMM*%
%LPD*%
G01*
G04 APERTURE LIST*
%TA.AperFunction,ComponentPad*%
%ADD10R,1.700000X1.700000*%
%TD*%
%TA.AperFunction,ComponentPad*%
%ADD11O,1.700000X1.700000*%
%TD*%
%TA.AperFunction,ViaPad*%
%ADD12C,0.600000*%
%TD*%
%TA.AperFunction,Conductor*%
%ADD13C,0.200000*%
%TD*%
G04 APERTURE END LIST*
D10*
%TO.P,J6,1,GP2*%
%TO.N,Net-(J1-SCl)*%
X118005000Y-55890000D03*
D11*
%TO.P,J6,2,GP3*%
%TO.N,Net-(J1-STX)*%
X118005000Y-58430000D03*
%TO.P,J6,3,GP4*%
%TO.N,Net-(J2-Pin_5)*%
X118005000Y-60970000D03*
%TO.P,J6,4,GP5*%
%TO.N,Net-(J2-Pin_2)*%
X118005000Y-63510000D03*
%TD*%
D10*
%TO.P,J2,1,Pin_1*%
%TO.N,Net-(J1-3.3v)*%
X122416803Y-66904054D03*
D11*
%TO.P,J2,2,Pin_2*%
%TO.N,Net-(J2-Pin_2)*%
X124956803Y-66904054D03*
%TO.P,J2,3,Pin_3*%
%TO.N,Net-(J1-STX)*%
X127496803Y-66904054D03*
%TO.P,J2,4,Pin_4*%
%TO.N,Net-(J1-SCl)*%
X130036803Y-66904054D03*
%TO.P,J2,5,Pin_5*%
%TO.N,Net-(J2-Pin_5)*%
X132576803Y-66904054D03*
%TO.P,J2,6,Pin_6*%
%TO.N,GND*%
X135116803Y-66904054D03*
%TD*%
D10*
%TO.P,J3,1,5v*%
%TO.N,Net-(D1-K)*%
X102740000Y-50800000D03*
D11*
%TO.P,J3,2,GND*%
%TO.N,GND*%
X102740000Y-53340000D03*
%TO.P,J3,3,3v3*%
%TO.N,Net-(J1-3.3v)*%
X102740000Y-55880000D03*
%TO.P,J3,4,GP29*%
%TO.N,Net-(J1-HS)*%
X102740000Y-58420000D03*
%TO.P,J3,5,GP28*%
%TO.N,Net-(J1-PCl)*%
X102740000Y-60960000D03*
%TO.P,J3,6,GP27*%
%TO.N,Net-(J1-VS)*%
X102740000Y-63500000D03*
%TO.P,J3,7,GP26*%
%TO.N,Net-(J1-B3)*%
X102740000Y-66040000D03*
%TO.P,J3,8,GP15*%
%TO.N,Net-(J1-Reset)*%
X102740000Y-68580000D03*
%TO.P,J3,9,GP14*%
%TO.N,Net-(J1-CS)*%
X102740000Y-71120000D03*
%TD*%
D10*
%TO.P,J4,1,GP10*%
%TO.N,Net-(J4-GP10)*%
X105280000Y-71130549D03*
D11*
%TO.P,J4,2,GP11*%
%TO.N,Net-(J4-GP11)*%
X107820000Y-71130549D03*
%TD*%
D10*
%TO.P,J9,1,Pin_1*%
%TO.N,Net-(D1-A)*%
X133266726Y-51179301D03*
D11*
%TO.P,J9,2,Pin_2*%
%TO.N,GND*%
X130726726Y-51179301D03*
%TD*%
D10*
%TO.P,J7,1,Spkr_+*%
%TO.N,Net-(J4-GP10)*%
X105290735Y-78664243D03*
D11*
%TO.P,J7,2,Spkr_-*%
%TO.N,Net-(J4-GP11)*%
X107830735Y-78664243D03*
%TD*%
D12*
%TO.N,GND*%
X135400000Y-78600000D03*
X119100000Y-75600000D03*
X119100000Y-81500000D03*
X133100000Y-78600000D03*
X127600000Y-78600000D03*
X112053611Y-78614687D03*
X121600000Y-78600000D03*
%TO.N,Net-(J1-SCl)*%
X116100000Y-81500000D03*
%TO.N,Net-(J1-CS)*%
X116400000Y-74000000D03*
%TO.N,Net-(J1-B3)*%
X119100000Y-74200000D03*
%TO.N,Net-(J1-Reset)*%
X117100000Y-78600000D03*
%TO.N,Net-(J1-HS)*%
X122000000Y-69350000D03*
%TO.N,Net-(J1-STX)*%
X122000000Y-70900000D03*
%TD*%
D13*
%TO.N,Net-(J2-Pin_2)*%
X124956803Y-66756803D02*
X124956803Y-66904054D01*
%TO.N,Net-(J1-SCl)*%
X119090000Y-55890000D02*
X130036803Y-66836803D01*
X130036803Y-66904054D02*
X130036803Y-67563197D01*
X130036803Y-67563197D02*
X116100000Y-81500000D01*
X118135000Y-55890000D02*
X119090000Y-55890000D01*
X130036803Y-66836803D02*
X130036803Y-66904054D01*
%TO.N,Net-(J1-CS)*%
X114500000Y-69500000D02*
X104360000Y-69500000D01*
X116400000Y-71400000D02*
X114500000Y-69500000D01*
X104360000Y-69500000D02*
X102740000Y-71120000D01*
X116400000Y-74000000D02*
X116400000Y-71400000D01*
%TO.N,Net-(J1-B3)*%
X102930000Y-66100000D02*
X102870000Y-66040000D01*
X114600000Y-66100000D02*
X102930000Y-66100000D01*
X119100000Y-74200000D02*
X119100000Y-70600000D01*
X119100000Y-70600000D02*
X114600000Y-66100000D01*
%TO.N,Net-(J1-Reset)*%
X103650000Y-67800000D02*
X114600000Y-67800000D01*
X117700000Y-70900000D02*
X117700000Y-75000000D01*
X117700000Y-75000000D02*
X117100000Y-75600000D01*
X114600000Y-67800000D02*
X117700000Y-70900000D01*
X117100000Y-75600000D02*
X117100000Y-78600000D01*
X102870000Y-68580000D02*
X103650000Y-67800000D01*
%TO.N,Net-(J1-HS)*%
X102920000Y-58420000D02*
X102870000Y-58420000D01*
X119950000Y-69350000D02*
X114300000Y-63700000D01*
X122000000Y-69350000D02*
X119950000Y-69350000D01*
X114300000Y-63700000D02*
X108200000Y-63700000D01*
X108200000Y-63700000D02*
X102920000Y-58420000D01*
%TO.N,Net-(J1-STX)*%
X118135000Y-58430000D02*
X119130000Y-58430000D01*
X127496803Y-66796803D02*
X127496803Y-66904054D01*
X119130000Y-58430000D02*
X127496803Y-66796803D01*
X122000000Y-70900000D02*
X123700000Y-70900000D01*
X127496803Y-67103197D02*
X127496803Y-66904054D01*
X123700000Y-70900000D02*
X127496803Y-67103197D01*
%TO.N,Net-(J4-GP11)*%
X107830735Y-71141284D02*
X107820000Y-71130549D01*
%TO.N,Net-(J4-GP10)*%
X105290735Y-71141284D02*
X105280000Y-71130549D01*
%TD*%
%TA.AperFunction,Conductor*%
%TO.N,GND*%
G36*
X101552539Y-49820185D02*
G01*
X101598294Y-49872989D01*
X101609500Y-49924500D01*
X101609500Y-51691881D01*
X101612221Y-51715333D01*
X101612221Y-51715335D01*
X101654580Y-51811267D01*
X101728733Y-51885420D01*
X101824667Y-51927779D01*
X101848120Y-51930500D01*
X101848121Y-51930500D01*
X103631879Y-51930500D01*
X103631880Y-51930500D01*
X103655333Y-51927779D01*
X103751267Y-51885420D01*
X103825420Y-51811267D01*
X103867779Y-51715333D01*
X103870500Y-51691880D01*
X103870500Y-50287419D01*
X132136226Y-50287419D01*
X132136226Y-52071182D01*
X132138947Y-52094634D01*
X132138947Y-52094636D01*
X132181306Y-52190568D01*
X132255459Y-52264721D01*
X132351393Y-52307080D01*
X132374846Y-52309801D01*
X132374847Y-52309801D01*
X134158605Y-52309801D01*
X134158606Y-52309801D01*
X134182059Y-52307080D01*
X134277993Y-52264721D01*
X134352146Y-52190568D01*
X134394505Y-52094634D01*
X134397226Y-52071181D01*
X134397226Y-50287421D01*
X134394505Y-50263968D01*
X134352146Y-50168034D01*
X134277993Y-50093881D01*
X134182060Y-50051522D01*
X134158607Y-50048801D01*
X134158606Y-50048801D01*
X132374846Y-50048801D01*
X132374844Y-50048801D01*
X132351392Y-50051522D01*
X132351390Y-50051522D01*
X132255458Y-50093881D01*
X132181306Y-50168033D01*
X132138947Y-50263965D01*
X132138947Y-50263967D01*
X132136226Y-50287419D01*
X103870500Y-50287419D01*
X103870500Y-49924500D01*
X103890185Y-49857461D01*
X103942989Y-49811706D01*
X103994500Y-49800500D01*
X137075500Y-49800500D01*
X137142539Y-49820185D01*
X137188294Y-49872989D01*
X137199500Y-49924500D01*
X137199500Y-80475500D01*
X137179815Y-80542539D01*
X137127011Y-80588294D01*
X137075500Y-80599500D01*
X135634108Y-80599500D01*
X135506812Y-80633608D01*
X135392686Y-80699500D01*
X135392683Y-80699502D01*
X135299502Y-80792683D01*
X135299500Y-80792686D01*
X135233608Y-80906812D01*
X135199500Y-81034108D01*
X135199500Y-87375500D01*
X135179815Y-87442539D01*
X135127011Y-87488294D01*
X135075500Y-87499500D01*
X102824500Y-87499500D01*
X102757461Y-87479815D01*
X102711706Y-87427011D01*
X102700500Y-87375500D01*
X102700500Y-81423576D01*
X115519500Y-81423576D01*
X115519500Y-81576424D01*
X115559060Y-81724065D01*
X115635484Y-81856435D01*
X115743565Y-81964516D01*
X115875935Y-82040940D01*
X116023576Y-82080500D01*
X116023578Y-82080500D01*
X116176422Y-82080500D01*
X116176424Y-82080500D01*
X116324065Y-82040940D01*
X116456435Y-81964516D01*
X116564516Y-81856435D01*
X116640940Y-81724065D01*
X116680500Y-81576424D01*
X116680500Y-81508970D01*
X116700185Y-81441931D01*
X116716819Y-81421289D01*
X123357609Y-74780499D01*
X130070883Y-68067224D01*
X130132204Y-68033741D01*
X130139164Y-68032434D01*
X130197183Y-68023244D01*
X130301529Y-68006718D01*
X130470764Y-67951730D01*
X130629314Y-67870945D01*
X130773274Y-67766351D01*
X130899100Y-67640525D01*
X131003694Y-67496565D01*
X131084479Y-67338015D01*
X131139467Y-67168780D01*
X131143603Y-67142664D01*
X131167303Y-66993031D01*
X131167303Y-66815076D01*
X131446303Y-66815076D01*
X131446303Y-66993031D01*
X131474138Y-67168780D01*
X131529128Y-67338019D01*
X131585931Y-67449500D01*
X131609912Y-67496565D01*
X131714506Y-67640525D01*
X131840332Y-67766351D01*
X131984292Y-67870945D01*
X132059200Y-67909112D01*
X132142837Y-67951728D01*
X132142839Y-67951728D01*
X132142842Y-67951730D01*
X132233555Y-67981204D01*
X132312076Y-68006718D01*
X132487826Y-68034554D01*
X132487831Y-68034554D01*
X132665780Y-68034554D01*
X132841529Y-68006718D01*
X132894603Y-67989473D01*
X133010764Y-67951730D01*
X133169314Y-67870945D01*
X133313274Y-67766351D01*
X133439100Y-67640525D01*
X133543694Y-67496565D01*
X133624479Y-67338015D01*
X133679467Y-67168780D01*
X133683603Y-67142664D01*
X133707303Y-66993031D01*
X133707303Y-66815076D01*
X133679467Y-66639327D01*
X133639661Y-66516819D01*
X133624479Y-66470093D01*
X133624477Y-66470090D01*
X133624477Y-66470088D01*
X133576259Y-66375455D01*
X133543694Y-66311543D01*
X133439100Y-66167583D01*
X133313274Y-66041757D01*
X133169314Y-65937163D01*
X133010768Y-65856379D01*
X132841529Y-65801389D01*
X132665780Y-65773554D01*
X132665775Y-65773554D01*
X132487831Y-65773554D01*
X132487826Y-65773554D01*
X132312076Y-65801389D01*
X132142837Y-65856379D01*
X131984291Y-65937163D01*
X131840330Y-66041758D01*
X131714507Y-66167581D01*
X131609912Y-66311542D01*
X131529128Y-66470088D01*
X131474138Y-66639327D01*
X131446303Y-66815076D01*
X131167303Y-66815076D01*
X131139467Y-66639327D01*
X131099661Y-66516819D01*
X131084479Y-66470093D01*
X131084477Y-66470090D01*
X131084477Y-66470088D01*
X131036259Y-66375455D01*
X131003694Y-66311543D01*
X130899100Y-66167583D01*
X130773274Y-66041757D01*
X130629314Y-65937163D01*
X130470768Y-65856379D01*
X130301529Y-65801389D01*
X130125780Y-65773554D01*
X130125775Y-65773554D01*
X129947831Y-65773554D01*
X129947826Y-65773554D01*
X129772075Y-65801390D01*
X129772072Y-65801390D01*
X129668803Y-65834945D01*
X129598962Y-65836940D01*
X129542804Y-65804695D01*
X119323633Y-55585525D01*
X119323631Y-55585523D01*
X119236867Y-55535431D01*
X119236865Y-55535430D01*
X119227403Y-55532895D01*
X119167744Y-55496528D01*
X119137216Y-55433680D01*
X119135500Y-55413121D01*
X119135500Y-54998121D01*
X119135500Y-54998120D01*
X119132779Y-54974667D01*
X119090420Y-54878733D01*
X119016267Y-54804580D01*
X118920334Y-54762221D01*
X118896881Y-54759500D01*
X118896880Y-54759500D01*
X117113120Y-54759500D01*
X117113118Y-54759500D01*
X117089666Y-54762221D01*
X117089664Y-54762221D01*
X116993732Y-54804580D01*
X116919580Y-54878732D01*
X116877221Y-54974664D01*
X116877221Y-54974666D01*
X116874500Y-54998118D01*
X116874500Y-56781881D01*
X116877221Y-56805333D01*
X116877221Y-56805335D01*
X116919580Y-56901267D01*
X116993733Y-56975420D01*
X117089667Y-57017779D01*
X117113120Y-57020500D01*
X117113121Y-57020500D01*
X118896879Y-57020500D01*
X118896880Y-57020500D01*
X118920333Y-57017779D01*
X119016267Y-56975420D01*
X119090420Y-56901267D01*
X119132779Y-56805333D01*
X119135500Y-56781880D01*
X119135500Y-56772970D01*
X119155185Y-56705931D01*
X119207989Y-56660176D01*
X119277147Y-56650232D01*
X119340703Y-56679257D01*
X119347181Y-56685289D01*
X128973642Y-66311751D01*
X129007127Y-66373074D01*
X129002143Y-66442766D01*
X128996449Y-66455721D01*
X128989125Y-66470095D01*
X128934139Y-66639323D01*
X128934139Y-66639326D01*
X128906303Y-66815076D01*
X128906303Y-66993031D01*
X128934138Y-67168780D01*
X128989128Y-67338019D01*
X129069912Y-67496565D01*
X129174507Y-67640526D01*
X129210255Y-67676274D01*
X129243740Y-67737597D01*
X129238756Y-67807289D01*
X129210255Y-67851636D01*
X116178711Y-80883181D01*
X116117388Y-80916666D01*
X116091030Y-80919500D01*
X116023576Y-80919500D01*
X115875935Y-80959060D01*
X115875932Y-80959061D01*
X115743568Y-81035482D01*
X115743562Y-81035486D01*
X115635486Y-81143562D01*
X115635482Y-81143568D01*
X115559061Y-81275932D01*
X115559060Y-81275935D01*
X115519500Y-81423576D01*
X102700500Y-81423576D01*
X102700500Y-81034110D01*
X102700500Y-81034108D01*
X102666392Y-80906814D01*
X102600500Y-80792686D01*
X102600495Y-80792681D01*
X102595553Y-80786240D01*
X102598194Y-80784212D01*
X102572129Y-80736477D01*
X102569308Y-80708344D01*
X102570000Y-80660000D01*
X102472124Y-80660000D01*
X102410122Y-80643386D01*
X102393188Y-80633608D01*
X102308323Y-80610869D01*
X102265892Y-80599500D01*
X102265891Y-80599500D01*
X100824500Y-80599500D01*
X100757461Y-80579815D01*
X100711706Y-80527011D01*
X100700500Y-80475500D01*
X100700500Y-77772361D01*
X104160235Y-77772361D01*
X104160235Y-79556124D01*
X104162956Y-79579576D01*
X104162956Y-79579578D01*
X104185721Y-79631134D01*
X104205315Y-79675510D01*
X104279468Y-79749663D01*
X104375402Y-79792022D01*
X104398855Y-79794743D01*
X104398856Y-79794743D01*
X106182614Y-79794743D01*
X106182615Y-79794743D01*
X106206068Y-79792022D01*
X106302002Y-79749663D01*
X106376155Y-79675510D01*
X106418514Y-79579576D01*
X106421235Y-79556123D01*
X106421235Y-78575265D01*
X106700235Y-78575265D01*
X106700235Y-78753220D01*
X106728070Y-78928969D01*
X106783060Y-79098208D01*
X106863844Y-79256754D01*
X106968438Y-79400714D01*
X107094264Y-79526540D01*
X107238224Y-79631134D01*
X107313132Y-79669301D01*
X107396769Y-79711917D01*
X107396771Y-79711917D01*
X107396774Y-79711919D01*
X107487487Y-79741393D01*
X107566008Y-79766907D01*
X107741758Y-79794743D01*
X107741763Y-79794743D01*
X107919712Y-79794743D01*
X108095461Y-79766907D01*
X108148535Y-79749662D01*
X108264696Y-79711919D01*
X108423246Y-79631134D01*
X108567206Y-79526540D01*
X108693032Y-79400714D01*
X108797626Y-79256754D01*
X108878411Y-79098204D01*
X108933399Y-78928969D01*
X108961235Y-78753220D01*
X108961235Y-78575265D01*
X108933399Y-78399516D01*
X108878409Y-78230277D01*
X108829631Y-78134545D01*
X108797626Y-78071732D01*
X108693032Y-77927772D01*
X108567206Y-77801946D01*
X108423246Y-77697352D01*
X108264700Y-77616568D01*
X108095461Y-77561578D01*
X107919712Y-77533743D01*
X107919707Y-77533743D01*
X107741763Y-77533743D01*
X107741758Y-77533743D01*
X107566008Y-77561578D01*
X107396769Y-77616568D01*
X107238223Y-77697352D01*
X107094262Y-77801947D01*
X106968439Y-77927770D01*
X106863844Y-78071731D01*
X106783060Y-78230277D01*
X106728070Y-78399516D01*
X106700235Y-78575265D01*
X106421235Y-78575265D01*
X106421235Y-77772363D01*
X106418514Y-77748910D01*
X106376155Y-77652976D01*
X106302002Y-77578823D01*
X106262946Y-77561578D01*
X106206069Y-77536464D01*
X106182616Y-77533743D01*
X106182615Y-77533743D01*
X104398855Y-77533743D01*
X104398853Y-77533743D01*
X104375401Y-77536464D01*
X104375399Y-77536464D01*
X104279467Y-77578823D01*
X104205315Y-77652975D01*
X104162956Y-77748907D01*
X104162956Y-77748909D01*
X104160235Y-77772361D01*
X100700500Y-77772361D01*
X100700500Y-71031022D01*
X101609500Y-71031022D01*
X101609500Y-71208977D01*
X101637335Y-71384726D01*
X101692325Y-71553965D01*
X101706922Y-71582612D01*
X101773109Y-71712511D01*
X101877703Y-71856471D01*
X102003529Y-71982297D01*
X102147489Y-72086891D01*
X102168191Y-72097439D01*
X102306034Y-72167674D01*
X102306036Y-72167674D01*
X102306039Y-72167676D01*
X102396752Y-72197150D01*
X102475273Y-72222664D01*
X102651023Y-72250500D01*
X102651028Y-72250500D01*
X102828977Y-72250500D01*
X103004726Y-72222664D01*
X103025334Y-72215968D01*
X103173961Y-72167676D01*
X103332511Y-72086891D01*
X103476471Y-71982297D01*
X103602297Y-71856471D01*
X103706891Y-71712511D01*
X103787676Y-71553961D01*
X103842664Y-71384726D01*
X103845865Y-71364513D01*
X103870500Y-71208977D01*
X103870500Y-71031022D01*
X103842664Y-70855273D01*
X103809476Y-70753132D01*
X103792614Y-70701239D01*
X103790620Y-70631400D01*
X103822862Y-70575245D01*
X103937822Y-70460285D01*
X103999142Y-70426803D01*
X104068834Y-70431787D01*
X104124767Y-70473659D01*
X104149184Y-70539123D01*
X104149500Y-70547969D01*
X104149500Y-72022430D01*
X104152221Y-72045882D01*
X104152221Y-72045884D01*
X104174986Y-72097440D01*
X104194580Y-72141816D01*
X104268733Y-72215969D01*
X104364667Y-72258328D01*
X104388120Y-72261049D01*
X104388121Y-72261049D01*
X106171879Y-72261049D01*
X106171880Y-72261049D01*
X106195333Y-72258328D01*
X106291267Y-72215969D01*
X106365420Y-72141816D01*
X106407779Y-72045882D01*
X106410500Y-72022429D01*
X106410500Y-70238669D01*
X106407779Y-70215216D01*
X106365420Y-70119282D01*
X106338319Y-70092181D01*
X106304834Y-70030858D01*
X106309818Y-69961166D01*
X106351690Y-69905233D01*
X106417154Y-69880816D01*
X106426000Y-69880500D01*
X107266720Y-69880500D01*
X107333759Y-69900185D01*
X107379514Y-69952989D01*
X107389458Y-70022147D01*
X107360433Y-70085703D01*
X107323015Y-70114985D01*
X107227488Y-70163658D01*
X107083527Y-70268253D01*
X106957704Y-70394076D01*
X106853109Y-70538037D01*
X106772325Y-70696583D01*
X106717335Y-70865822D01*
X106689500Y-71041571D01*
X106689500Y-71219526D01*
X106717335Y-71395275D01*
X106772325Y-71564514D01*
X106794977Y-71608970D01*
X106853109Y-71723060D01*
X106957703Y-71867020D01*
X107083529Y-71992846D01*
X107227489Y-72097440D01*
X107302397Y-72135607D01*
X107386034Y-72178223D01*
X107386036Y-72178223D01*
X107386039Y-72178225D01*
X107476752Y-72207699D01*
X107555273Y-72233213D01*
X107731023Y-72261049D01*
X107731028Y-72261049D01*
X107908977Y-72261049D01*
X108084726Y-72233213D01*
X108137800Y-72215968D01*
X108253961Y-72178225D01*
X108412511Y-72097440D01*
X108556471Y-71992846D01*
X108682297Y-71867020D01*
X108786891Y-71723060D01*
X108867676Y-71564510D01*
X108922664Y-71395275D01*
X108924335Y-71384726D01*
X108950500Y-71219526D01*
X108950500Y-71041571D01*
X108922664Y-70865822D01*
X108867674Y-70696583D01*
X108805846Y-70575240D01*
X108786891Y-70538038D01*
X108682297Y-70394078D01*
X108556471Y-70268252D01*
X108412511Y-70163658D01*
X108316985Y-70114985D01*
X108266189Y-70067010D01*
X108249394Y-69999189D01*
X108271931Y-69933054D01*
X108326647Y-69889603D01*
X108373280Y-69880500D01*
X114291030Y-69880500D01*
X114358069Y-69900185D01*
X114378711Y-69916819D01*
X115983181Y-71521289D01*
X116016666Y-71582612D01*
X116019500Y-71608970D01*
X116019500Y-73508187D01*
X115999815Y-73575226D01*
X115983181Y-73595868D01*
X115935486Y-73643562D01*
X115935482Y-73643568D01*
X115859061Y-73775932D01*
X115859060Y-73775935D01*
X115819500Y-73923576D01*
X115819500Y-74076424D01*
X115859060Y-74224065D01*
X115935484Y-74356435D01*
X116043565Y-74464516D01*
X116175935Y-74540940D01*
X116323576Y-74580500D01*
X116323578Y-74580500D01*
X116476422Y-74580500D01*
X116476424Y-74580500D01*
X116624065Y-74540940D01*
X116756435Y-74464516D01*
X116864516Y-74356435D01*
X116940940Y-74224065D01*
X116980500Y-74076424D01*
X116980500Y-73923576D01*
X116940940Y-73775935D01*
X116864516Y-73643565D01*
X116816819Y-73595868D01*
X116783334Y-73534545D01*
X116780500Y-73508187D01*
X116780500Y-71349908D01*
X116780500Y-71349906D01*
X116754569Y-71253133D01*
X116704476Y-71166368D01*
X116633632Y-71095524D01*
X114733632Y-69195524D01*
X114733631Y-69195523D01*
X114690249Y-69170477D01*
X114646867Y-69145431D01*
X114550094Y-69119500D01*
X104410094Y-69119500D01*
X104309906Y-69119500D01*
X104213133Y-69145431D01*
X104213131Y-69145431D01*
X104213131Y-69145432D01*
X104126368Y-69195523D01*
X104126366Y-69195525D01*
X103284756Y-70037134D01*
X103223433Y-70070619D01*
X103158757Y-70067384D01*
X103090264Y-70045129D01*
X103004726Y-70017335D01*
X102828977Y-69989500D01*
X102828972Y-69989500D01*
X102651028Y-69989500D01*
X102651023Y-69989500D01*
X102475273Y-70017335D01*
X102306034Y-70072325D01*
X102147488Y-70153109D01*
X102003527Y-70257704D01*
X101877704Y-70383527D01*
X101773109Y-70527488D01*
X101692325Y-70686034D01*
X101637335Y-70855273D01*
X101609500Y-71031022D01*
X100700500Y-71031022D01*
X100700500Y-68491022D01*
X101609500Y-68491022D01*
X101609500Y-68668977D01*
X101637335Y-68844726D01*
X101692325Y-69013965D01*
X101773109Y-69172511D01*
X101877703Y-69316471D01*
X102003529Y-69442297D01*
X102147489Y-69546891D01*
X102200819Y-69574064D01*
X102306034Y-69627674D01*
X102306036Y-69627674D01*
X102306039Y-69627676D01*
X102388521Y-69654476D01*
X102475273Y-69682664D01*
X102651023Y-69710500D01*
X102651028Y-69710500D01*
X102828977Y-69710500D01*
X103004726Y-69682664D01*
X103173961Y-69627676D01*
X103332511Y-69546891D01*
X103476471Y-69442297D01*
X103602297Y-69316471D01*
X103706891Y-69172511D01*
X103787676Y-69013961D01*
X103842664Y-68844726D01*
X103848313Y-68809060D01*
X103870500Y-68668977D01*
X103870500Y-68491022D01*
X103844030Y-68323898D01*
X103852985Y-68254604D01*
X103897981Y-68201153D01*
X103964732Y-68180513D01*
X103966503Y-68180500D01*
X114391030Y-68180500D01*
X114458069Y-68200185D01*
X114478711Y-68216819D01*
X117283181Y-71021289D01*
X117316666Y-71082612D01*
X117319500Y-71108970D01*
X117319500Y-74791030D01*
X117299815Y-74858069D01*
X117283181Y-74878711D01*
X116795525Y-75366366D01*
X116795523Y-75366368D01*
X116745432Y-75453131D01*
X116745431Y-75453133D01*
X116719500Y-75549906D01*
X116719500Y-75549908D01*
X116719500Y-78108187D01*
X116699815Y-78175226D01*
X116683181Y-78195868D01*
X116635486Y-78243562D01*
X116635482Y-78243568D01*
X116559061Y-78375932D01*
X116559060Y-78375935D01*
X116519500Y-78523576D01*
X116519500Y-78676424D01*
X116559060Y-78824065D01*
X116635484Y-78956435D01*
X116743565Y-79064516D01*
X116875935Y-79140940D01*
X117023576Y-79180500D01*
X117023578Y-79180500D01*
X117176422Y-79180500D01*
X117176424Y-79180500D01*
X117324065Y-79140940D01*
X117456435Y-79064516D01*
X117564516Y-78956435D01*
X117640940Y-78824065D01*
X117680500Y-78676424D01*
X117680500Y-78523576D01*
X117640940Y-78375935D01*
X117564516Y-78243565D01*
X117516819Y-78195868D01*
X117483334Y-78134545D01*
X117480500Y-78108187D01*
X117480500Y-75808970D01*
X117500185Y-75741931D01*
X117516819Y-75721289D01*
X117688202Y-75549906D01*
X118004476Y-75233632D01*
X118054569Y-75146868D01*
X118080500Y-75050094D01*
X118080500Y-74949906D01*
X118080500Y-70849906D01*
X118054569Y-70753133D01*
X118054569Y-70753132D01*
X118054569Y-70753131D01*
X118004478Y-70666371D01*
X118004474Y-70666366D01*
X114833631Y-67495523D01*
X114790249Y-67470477D01*
X114746867Y-67445431D01*
X114650094Y-67419500D01*
X103700095Y-67419500D01*
X103599906Y-67419500D01*
X103503133Y-67445431D01*
X103503131Y-67445431D01*
X103503131Y-67445432D01*
X103416365Y-67495525D01*
X103373870Y-67538020D01*
X103312547Y-67571504D01*
X103242855Y-67566519D01*
X103229896Y-67560823D01*
X103173968Y-67532326D01*
X103004726Y-67477335D01*
X102828977Y-67449500D01*
X102828972Y-67449500D01*
X102651028Y-67449500D01*
X102651023Y-67449500D01*
X102475273Y-67477335D01*
X102306034Y-67532325D01*
X102147488Y-67613109D01*
X102003527Y-67717704D01*
X101877704Y-67843527D01*
X101773109Y-67987488D01*
X101692325Y-68146034D01*
X101637335Y-68315273D01*
X101609500Y-68491022D01*
X100700500Y-68491022D01*
X100700500Y-65951022D01*
X101609500Y-65951022D01*
X101609500Y-66128977D01*
X101637335Y-66304726D01*
X101692325Y-66473965D01*
X101730153Y-66548205D01*
X101773109Y-66632511D01*
X101877703Y-66776471D01*
X102003529Y-66902297D01*
X102147489Y-67006891D01*
X102222397Y-67045058D01*
X102306034Y-67087674D01*
X102306036Y-67087674D01*
X102306039Y-67087676D01*
X102396752Y-67117150D01*
X102475273Y-67142664D01*
X102651023Y-67170500D01*
X102651028Y-67170500D01*
X102828977Y-67170500D01*
X103004726Y-67142664D01*
X103173961Y-67087676D01*
X103332511Y-67006891D01*
X103476471Y-66902297D01*
X103602297Y-66776471D01*
X103706891Y-66632511D01*
X103749847Y-66548205D01*
X103797822Y-66497409D01*
X103860332Y-66480500D01*
X114391030Y-66480500D01*
X114458069Y-66500185D01*
X114478711Y-66516819D01*
X118683181Y-70721289D01*
X118716666Y-70782612D01*
X118719500Y-70808970D01*
X118719500Y-73708187D01*
X118699815Y-73775226D01*
X118683181Y-73795868D01*
X118635486Y-73843562D01*
X118635482Y-73843568D01*
X118559061Y-73975932D01*
X118559060Y-73975935D01*
X118519500Y-74123576D01*
X118519500Y-74276424D01*
X118559060Y-74424065D01*
X118635484Y-74556435D01*
X118743565Y-74664516D01*
X118875935Y-74740940D01*
X119023576Y-74780500D01*
X119023578Y-74780500D01*
X119176422Y-74780500D01*
X119176424Y-74780500D01*
X119324065Y-74740940D01*
X119456435Y-74664516D01*
X119564516Y-74556435D01*
X119640940Y-74424065D01*
X119680500Y-74276424D01*
X119680500Y-74123576D01*
X119640940Y-73975935D01*
X119564516Y-73843565D01*
X119516819Y-73795868D01*
X119483334Y-73734545D01*
X119480500Y-73708187D01*
X119480500Y-70549907D01*
X119478801Y-70543568D01*
X119454569Y-70453133D01*
X119454569Y-70453132D01*
X119454569Y-70453131D01*
X119404478Y-70366371D01*
X119404474Y-70366366D01*
X114833631Y-65795523D01*
X114790249Y-65770477D01*
X114746867Y-65745431D01*
X114650094Y-65719500D01*
X114650091Y-65719500D01*
X103914633Y-65719500D01*
X103847594Y-65699815D01*
X103801839Y-65647011D01*
X103796702Y-65633819D01*
X103787674Y-65606034D01*
X103706890Y-65447488D01*
X103602297Y-65303529D01*
X103476471Y-65177703D01*
X103332511Y-65073109D01*
X103173965Y-64992325D01*
X103004726Y-64937335D01*
X102828977Y-64909500D01*
X102828972Y-64909500D01*
X102651028Y-64909500D01*
X102651023Y-64909500D01*
X102475273Y-64937335D01*
X102306034Y-64992325D01*
X102147488Y-65073109D01*
X102003527Y-65177704D01*
X101877704Y-65303527D01*
X101773109Y-65447488D01*
X101692325Y-65606034D01*
X101637335Y-65775273D01*
X101609500Y-65951022D01*
X100700500Y-65951022D01*
X100700500Y-63411022D01*
X101609500Y-63411022D01*
X101609500Y-63588977D01*
X101637335Y-63764726D01*
X101692325Y-63933965D01*
X101766989Y-64080500D01*
X101773109Y-64092511D01*
X101877703Y-64236471D01*
X102003529Y-64362297D01*
X102147489Y-64466891D01*
X102222397Y-64505058D01*
X102306034Y-64547674D01*
X102306036Y-64547674D01*
X102306039Y-64547676D01*
X102336810Y-64557674D01*
X102475273Y-64602664D01*
X102651023Y-64630500D01*
X102651028Y-64630500D01*
X102828977Y-64630500D01*
X103004726Y-64602664D01*
X103173961Y-64547676D01*
X103332511Y-64466891D01*
X103476471Y-64362297D01*
X103602297Y-64236471D01*
X103706891Y-64092511D01*
X103787676Y-63933961D01*
X103842664Y-63764726D01*
X103870500Y-63588977D01*
X103870500Y-63411022D01*
X103842664Y-63235273D01*
X103790925Y-63076039D01*
X103787676Y-63066039D01*
X103787674Y-63066036D01*
X103787674Y-63066034D01*
X103711986Y-62917489D01*
X103706891Y-62907489D01*
X103602297Y-62763529D01*
X103476471Y-62637703D01*
X103332511Y-62533109D01*
X103173965Y-62452325D01*
X103004726Y-62397335D01*
X102828977Y-62369500D01*
X102828972Y-62369500D01*
X102651028Y-62369500D01*
X102651023Y-62369500D01*
X102475273Y-62397335D01*
X102306034Y-62452325D01*
X102147488Y-62533109D01*
X102003527Y-62637704D01*
X101877704Y-62763527D01*
X101773109Y-62907488D01*
X101692325Y-63066034D01*
X101637335Y-63235273D01*
X101609500Y-63411022D01*
X100700500Y-63411022D01*
X100700500Y-60871022D01*
X101609500Y-60871022D01*
X101609500Y-61048977D01*
X101637335Y-61224726D01*
X101692325Y-61393965D01*
X101773109Y-61552511D01*
X101877703Y-61696471D01*
X102003529Y-61822297D01*
X102147489Y-61926891D01*
X102222397Y-61965058D01*
X102306034Y-62007674D01*
X102306036Y-62007674D01*
X102306039Y-62007676D01*
X102336810Y-62017674D01*
X102475273Y-62062664D01*
X102651023Y-62090500D01*
X102651028Y-62090500D01*
X102828977Y-62090500D01*
X103004726Y-62062664D01*
X103173961Y-62007676D01*
X103332511Y-61926891D01*
X103476471Y-61822297D01*
X103602297Y-61696471D01*
X103706891Y-61552511D01*
X103787676Y-61393961D01*
X103842664Y-61224726D01*
X103870500Y-61048977D01*
X103870500Y-60871022D01*
X103842664Y-60695273D01*
X103790925Y-60536039D01*
X103787676Y-60526039D01*
X103787674Y-60526036D01*
X103787674Y-60526034D01*
X103711986Y-60377489D01*
X103706891Y-60367489D01*
X103602297Y-60223529D01*
X103476471Y-60097703D01*
X103332511Y-59993109D01*
X103173965Y-59912325D01*
X103004726Y-59857335D01*
X102828977Y-59829500D01*
X102828972Y-59829500D01*
X102651028Y-59829500D01*
X102651023Y-59829500D01*
X102475273Y-59857335D01*
X102306034Y-59912325D01*
X102147488Y-59993109D01*
X102003527Y-60097704D01*
X101877704Y-60223527D01*
X101773109Y-60367488D01*
X101692325Y-60526034D01*
X101637335Y-60695273D01*
X101609500Y-60871022D01*
X100700500Y-60871022D01*
X100700500Y-58331022D01*
X101609500Y-58331022D01*
X101609500Y-58508977D01*
X101637335Y-58684726D01*
X101692325Y-58853965D01*
X101767737Y-59001968D01*
X101773109Y-59012511D01*
X101877703Y-59156471D01*
X102003529Y-59282297D01*
X102147489Y-59386891D01*
X102216981Y-59422299D01*
X102306034Y-59467674D01*
X102306036Y-59467674D01*
X102306039Y-59467676D01*
X102336810Y-59477674D01*
X102475273Y-59522664D01*
X102651023Y-59550500D01*
X102651028Y-59550500D01*
X102828977Y-59550500D01*
X103004726Y-59522664D01*
X103173961Y-59467676D01*
X103263019Y-59422298D01*
X103331686Y-59409402D01*
X103396427Y-59435678D01*
X103406994Y-59445102D01*
X107966368Y-64004476D01*
X108053133Y-64054569D01*
X108149906Y-64080500D01*
X108250095Y-64080500D01*
X114091030Y-64080500D01*
X114158069Y-64100185D01*
X114178711Y-64116819D01*
X119645524Y-69583632D01*
X119716368Y-69654476D01*
X119803133Y-69704569D01*
X119899906Y-69730500D01*
X121508187Y-69730500D01*
X121575226Y-69750185D01*
X121595868Y-69766819D01*
X121643565Y-69814516D01*
X121775935Y-69890940D01*
X121923576Y-69930500D01*
X121923578Y-69930500D01*
X122076422Y-69930500D01*
X122076424Y-69930500D01*
X122224065Y-69890940D01*
X122356435Y-69814516D01*
X122464516Y-69706435D01*
X122540940Y-69574065D01*
X122580500Y-69426424D01*
X122580500Y-69273576D01*
X122540940Y-69125935D01*
X122464516Y-68993565D01*
X122356435Y-68885484D01*
X122224065Y-68809060D01*
X122076424Y-68769500D01*
X121923576Y-68769500D01*
X121775935Y-68809060D01*
X121775932Y-68809061D01*
X121643568Y-68885482D01*
X121643562Y-68885486D01*
X121595868Y-68933181D01*
X121534545Y-68966666D01*
X121508187Y-68969500D01*
X120158970Y-68969500D01*
X120091931Y-68949815D01*
X120071289Y-68933181D01*
X117150280Y-66012172D01*
X121286303Y-66012172D01*
X121286303Y-67795935D01*
X121289024Y-67819387D01*
X121289024Y-67819389D01*
X121311789Y-67870945D01*
X121331383Y-67915321D01*
X121405536Y-67989474D01*
X121501470Y-68031833D01*
X121524923Y-68034554D01*
X121524924Y-68034554D01*
X123308682Y-68034554D01*
X123308683Y-68034554D01*
X123332136Y-68031833D01*
X123428070Y-67989474D01*
X123502223Y-67915321D01*
X123544582Y-67819387D01*
X123547303Y-67795934D01*
X123547303Y-66815076D01*
X123826303Y-66815076D01*
X123826303Y-66993031D01*
X123854138Y-67168780D01*
X123909128Y-67338019D01*
X123965931Y-67449500D01*
X123989912Y-67496565D01*
X124094506Y-67640525D01*
X124220332Y-67766351D01*
X124364292Y-67870945D01*
X124439200Y-67909112D01*
X124522837Y-67951728D01*
X124522839Y-67951728D01*
X124522842Y-67951730D01*
X124613555Y-67981204D01*
X124692076Y-68006718D01*
X124867826Y-68034554D01*
X124867831Y-68034554D01*
X125045780Y-68034554D01*
X125221529Y-68006718D01*
X125274603Y-67989473D01*
X125390764Y-67951730D01*
X125549314Y-67870945D01*
X125693274Y-67766351D01*
X125819100Y-67640525D01*
X125923694Y-67496565D01*
X126004479Y-67338015D01*
X126059467Y-67168780D01*
X126063603Y-67142664D01*
X126087303Y-66993031D01*
X126087303Y-66815076D01*
X126059467Y-66639327D01*
X126019661Y-66516819D01*
X126004479Y-66470093D01*
X126004477Y-66470090D01*
X126004477Y-66470088D01*
X125956259Y-66375455D01*
X125923694Y-66311543D01*
X125819100Y-66167583D01*
X125693274Y-66041757D01*
X125549314Y-65937163D01*
X125390768Y-65856379D01*
X125221529Y-65801389D01*
X125045780Y-65773554D01*
X125045775Y-65773554D01*
X124867831Y-65773554D01*
X124867826Y-65773554D01*
X124692076Y-65801389D01*
X124522837Y-65856379D01*
X124364291Y-65937163D01*
X124220330Y-66041758D01*
X124094507Y-66167581D01*
X123989912Y-66311542D01*
X123909128Y-66470088D01*
X123854138Y-66639327D01*
X123826303Y-66815076D01*
X123547303Y-66815076D01*
X123547303Y-66012174D01*
X123544582Y-65988721D01*
X123502223Y-65892787D01*
X123428070Y-65818634D01*
X123332137Y-65776275D01*
X123308684Y-65773554D01*
X123308683Y-65773554D01*
X121524923Y-65773554D01*
X121524921Y-65773554D01*
X121501469Y-65776275D01*
X121501467Y-65776275D01*
X121405535Y-65818634D01*
X121331383Y-65892786D01*
X121289024Y-65988718D01*
X121289024Y-65988720D01*
X121286303Y-66012172D01*
X117150280Y-66012172D01*
X114559130Y-63421022D01*
X116874500Y-63421022D01*
X116874500Y-63598977D01*
X116902335Y-63774726D01*
X116957325Y-63943965D01*
X117013680Y-64054567D01*
X117038109Y-64102511D01*
X117142703Y-64246471D01*
X117268529Y-64372297D01*
X117412489Y-64476891D01*
X117487397Y-64515058D01*
X117571034Y-64557674D01*
X117571036Y-64557674D01*
X117571039Y-64557676D01*
X117661752Y-64587150D01*
X117740273Y-64612664D01*
X117916023Y-64640500D01*
X117916028Y-64640500D01*
X118093977Y-64640500D01*
X118269726Y-64612664D01*
X118438961Y-64557676D01*
X118597511Y-64476891D01*
X118741471Y-64372297D01*
X118867297Y-64246471D01*
X118971891Y-64102511D01*
X119052676Y-63943961D01*
X119107664Y-63774726D01*
X119109248Y-63764726D01*
X119135500Y-63598977D01*
X119135500Y-63421022D01*
X119107664Y-63245273D01*
X119052674Y-63076034D01*
X118971890Y-62917488D01*
X118867297Y-62773529D01*
X118741471Y-62647703D01*
X118597511Y-62543109D01*
X118577885Y-62533109D01*
X118438965Y-62462325D01*
X118269726Y-62407335D01*
X118093977Y-62379500D01*
X118093972Y-62379500D01*
X117916028Y-62379500D01*
X117916023Y-62379500D01*
X117740273Y-62407335D01*
X117571034Y-62462325D01*
X117412488Y-62543109D01*
X117268527Y-62647704D01*
X117142704Y-62773527D01*
X117038109Y-62917488D01*
X116957325Y-63076034D01*
X116902335Y-63245273D01*
X116874500Y-63421022D01*
X114559130Y-63421022D01*
X114533631Y-63395523D01*
X114490249Y-63370477D01*
X114446867Y-63345431D01*
X114350094Y-63319500D01*
X114350091Y-63319500D01*
X108408970Y-63319500D01*
X108341931Y-63299815D01*
X108321289Y-63283181D01*
X105919130Y-60881022D01*
X116874500Y-60881022D01*
X116874500Y-61058977D01*
X116902335Y-61234726D01*
X116957325Y-61403965D01*
X117033014Y-61552511D01*
X117038109Y-61562511D01*
X117142703Y-61706471D01*
X117268529Y-61832297D01*
X117412489Y-61936891D01*
X117487397Y-61975058D01*
X117571034Y-62017674D01*
X117571036Y-62017674D01*
X117571039Y-62017676D01*
X117661752Y-62047150D01*
X117740273Y-62072664D01*
X117916023Y-62100500D01*
X117916028Y-62100500D01*
X118093977Y-62100500D01*
X118269726Y-62072664D01*
X118438961Y-62017676D01*
X118597511Y-61936891D01*
X118741471Y-61832297D01*
X118867297Y-61706471D01*
X118971891Y-61562511D01*
X119052676Y-61403961D01*
X119107664Y-61234726D01*
X119109248Y-61224726D01*
X119135500Y-61058977D01*
X119135500Y-60881022D01*
X119107664Y-60705273D01*
X119052674Y-60536034D01*
X118971890Y-60377488D01*
X118867297Y-60233529D01*
X118741471Y-60107703D01*
X118597511Y-60003109D01*
X118577885Y-59993109D01*
X118438965Y-59922325D01*
X118269726Y-59867335D01*
X118093977Y-59839500D01*
X118093972Y-59839500D01*
X117916028Y-59839500D01*
X117916023Y-59839500D01*
X117740273Y-59867335D01*
X117571034Y-59922325D01*
X117412488Y-60003109D01*
X117268527Y-60107704D01*
X117142704Y-60233527D01*
X117038109Y-60377488D01*
X116957325Y-60536034D01*
X116902335Y-60705273D01*
X116874500Y-60881022D01*
X105919130Y-60881022D01*
X103867008Y-58828900D01*
X103833523Y-58767577D01*
X103836757Y-58702903D01*
X103842664Y-58684726D01*
X103857847Y-58588860D01*
X103870500Y-58508977D01*
X103870500Y-58341022D01*
X116874500Y-58341022D01*
X116874500Y-58518977D01*
X116902335Y-58694726D01*
X116957325Y-58863965D01*
X117009599Y-58966557D01*
X117038109Y-59022511D01*
X117142703Y-59166471D01*
X117268529Y-59292297D01*
X117412489Y-59396891D01*
X117462355Y-59422299D01*
X117571034Y-59477674D01*
X117571036Y-59477674D01*
X117571039Y-59477676D01*
X117661752Y-59507150D01*
X117740273Y-59532664D01*
X117916023Y-59560500D01*
X117916028Y-59560500D01*
X118093977Y-59560500D01*
X118269726Y-59532664D01*
X118438961Y-59477676D01*
X118597511Y-59396891D01*
X118741471Y-59292297D01*
X118867297Y-59166471D01*
X118971891Y-59022511D01*
X118971891Y-59022510D01*
X118974755Y-59018569D01*
X118976230Y-59019641D01*
X119022231Y-58977999D01*
X119091158Y-58966557D01*
X119155328Y-58994195D01*
X119163859Y-59001967D01*
X122809594Y-62647703D01*
X126447144Y-66285253D01*
X126480629Y-66346576D01*
X126475645Y-66416268D01*
X126469948Y-66429228D01*
X126449125Y-66470094D01*
X126449125Y-66470096D01*
X126394139Y-66639323D01*
X126394139Y-66639326D01*
X126366303Y-66815076D01*
X126366303Y-66993031D01*
X126394138Y-67168780D01*
X126449129Y-67338022D01*
X126500964Y-67439754D01*
X126513860Y-67508423D01*
X126487583Y-67573163D01*
X126478160Y-67583729D01*
X123578711Y-70483181D01*
X123517388Y-70516666D01*
X123491030Y-70519500D01*
X122491813Y-70519500D01*
X122424774Y-70499815D01*
X122404132Y-70483181D01*
X122356437Y-70435486D01*
X122356435Y-70435484D01*
X122236723Y-70366368D01*
X122224067Y-70359061D01*
X122224066Y-70359060D01*
X122224065Y-70359060D01*
X122076424Y-70319500D01*
X121923576Y-70319500D01*
X121775935Y-70359060D01*
X121775932Y-70359061D01*
X121643568Y-70435482D01*
X121643562Y-70435486D01*
X121535486Y-70543562D01*
X121535482Y-70543568D01*
X121459061Y-70675932D01*
X121459060Y-70675935D01*
X121419500Y-70823576D01*
X121419500Y-70976424D01*
X121459060Y-71124065D01*
X121535484Y-71256435D01*
X121643565Y-71364516D01*
X121775935Y-71440940D01*
X121923576Y-71480500D01*
X121923578Y-71480500D01*
X122076422Y-71480500D01*
X122076424Y-71480500D01*
X122224065Y-71440940D01*
X122356435Y-71364516D01*
X122404132Y-71316819D01*
X122465455Y-71283334D01*
X122491813Y-71280500D01*
X123750091Y-71280500D01*
X123750094Y-71280500D01*
X123846867Y-71254569D01*
X123933632Y-71204476D01*
X127102352Y-68035754D01*
X127163673Y-68002271D01*
X127228349Y-68005506D01*
X127232077Y-68006718D01*
X127253289Y-68010077D01*
X127407826Y-68034554D01*
X127407831Y-68034554D01*
X127585780Y-68034554D01*
X127761529Y-68006718D01*
X127814603Y-67989473D01*
X127930764Y-67951730D01*
X128089314Y-67870945D01*
X128233274Y-67766351D01*
X128359100Y-67640525D01*
X128463694Y-67496565D01*
X128544479Y-67338015D01*
X128599467Y-67168780D01*
X128603603Y-67142664D01*
X128627303Y-66993031D01*
X128627303Y-66815076D01*
X128599467Y-66639327D01*
X128559661Y-66516819D01*
X128544479Y-66470093D01*
X128544477Y-66470090D01*
X128544477Y-66470088D01*
X128496259Y-66375455D01*
X128463694Y-66311543D01*
X128359100Y-66167583D01*
X128233274Y-66041757D01*
X128089314Y-65937163D01*
X127930768Y-65856379D01*
X127761529Y-65801389D01*
X127585780Y-65773554D01*
X127585775Y-65773554D01*
X127407831Y-65773554D01*
X127407826Y-65773554D01*
X127232078Y-65801389D01*
X127158992Y-65825136D01*
X127089150Y-65827130D01*
X127032994Y-65794885D01*
X119363633Y-58125525D01*
X119363631Y-58125523D01*
X119320249Y-58100477D01*
X119276867Y-58075431D01*
X119180094Y-58049500D01*
X119180091Y-58049500D01*
X119155903Y-58049500D01*
X119088864Y-58029815D01*
X119045418Y-57981795D01*
X118971890Y-57837488D01*
X118867297Y-57693529D01*
X118741471Y-57567703D01*
X118597511Y-57463109D01*
X118577885Y-57453109D01*
X118438965Y-57382325D01*
X118269726Y-57327335D01*
X118093977Y-57299500D01*
X118093972Y-57299500D01*
X117916028Y-57299500D01*
X117916023Y-57299500D01*
X117740273Y-57327335D01*
X117571034Y-57382325D01*
X117412488Y-57463109D01*
X117268527Y-57567704D01*
X117142704Y-57693527D01*
X117038109Y-57837488D01*
X116957325Y-57996034D01*
X116902335Y-58165273D01*
X116874500Y-58341022D01*
X103870500Y-58341022D01*
X103870500Y-58331022D01*
X103842664Y-58155273D01*
X103790925Y-57996039D01*
X103787676Y-57986039D01*
X103787674Y-57986036D01*
X103787674Y-57986034D01*
X103711986Y-57837489D01*
X103706891Y-57827489D01*
X103602297Y-57683529D01*
X103476471Y-57557703D01*
X103332511Y-57453109D01*
X103173965Y-57372325D01*
X103004726Y-57317335D01*
X102828977Y-57289500D01*
X102828972Y-57289500D01*
X102651028Y-57289500D01*
X102651023Y-57289500D01*
X102475273Y-57317335D01*
X102306034Y-57372325D01*
X102147488Y-57453109D01*
X102003527Y-57557704D01*
X101877704Y-57683527D01*
X101773109Y-57827488D01*
X101692325Y-57986034D01*
X101637335Y-58155273D01*
X101609500Y-58331022D01*
X100700500Y-58331022D01*
X100700500Y-55791022D01*
X101609500Y-55791022D01*
X101609500Y-55968977D01*
X101637335Y-56144726D01*
X101692325Y-56313965D01*
X101773109Y-56472511D01*
X101877703Y-56616471D01*
X102003529Y-56742297D01*
X102147489Y-56846891D01*
X102222397Y-56885058D01*
X102306034Y-56927674D01*
X102306036Y-56927674D01*
X102306039Y-56927676D01*
X102396752Y-56957150D01*
X102475273Y-56982664D01*
X102651023Y-57010500D01*
X102651028Y-57010500D01*
X102828977Y-57010500D01*
X103004726Y-56982664D01*
X103173961Y-56927676D01*
X103332511Y-56846891D01*
X103476471Y-56742297D01*
X103602297Y-56616471D01*
X103706891Y-56472511D01*
X103787676Y-56313961D01*
X103842664Y-56144726D01*
X103870500Y-55968977D01*
X103870500Y-55791022D01*
X103842664Y-55615273D01*
X103787674Y-55446034D01*
X103706890Y-55287488D01*
X103602297Y-55143529D01*
X103476471Y-55017703D01*
X103332511Y-54913109D01*
X103173965Y-54832325D01*
X103004726Y-54777335D01*
X102828977Y-54749500D01*
X102828972Y-54749500D01*
X102651028Y-54749500D01*
X102651023Y-54749500D01*
X102475273Y-54777335D01*
X102306034Y-54832325D01*
X102147488Y-54913109D01*
X102003527Y-55017704D01*
X101877704Y-55143527D01*
X101773109Y-55287488D01*
X101692325Y-55446034D01*
X101637335Y-55615273D01*
X101609500Y-55791022D01*
X100700500Y-55791022D01*
X100700500Y-49924500D01*
X100720185Y-49857461D01*
X100772989Y-49811706D01*
X100824500Y-49800500D01*
X101485500Y-49800500D01*
X101552539Y-49820185D01*
G37*
%TD.AperFunction*%
%TD*%
M02*
