%TF.GenerationSoftware,KiCad,Pcbnew,9.0.0*%
%TF.CreationDate,2025-05-12T14:44:43+01:00*%
%TF.ProjectId,KiCAD_uPicomac3_2,4b694341-445f-4755-9069-636f6d616333,rev?*%
%TF.SameCoordinates,Original*%
%TF.FileFunction,Soldermask,Top*%
%TF.FilePolarity,Negative*%
%FSLAX46Y46*%
G04 Gerber Fmt 4.6, Leading zero omitted, Abs format (unit mm)*
G04 Created by KiCad (PCBNEW 9.0.0) date 2025-05-12 14:44:43*
%MOMM*%
%LPD*%
G01*
G04 APERTURE LIST*
G04 Aperture macros list*
%AMRoundRect*
0 Rectangle with rounded corners*
0 $1 Rounding radius*
0 $2 $3 $4 $5 $6 $7 $8 $9 X,Y pos of 4 corners*
0 Add a 4 corners polygon primitive as box body*
4,1,4,$2,$3,$4,$5,$6,$7,$8,$9,$2,$3,0*
0 Add four circle primitives for the rounded corners*
1,1,$1+$1,$2,$3*
1,1,$1+$1,$4,$5*
1,1,$1+$1,$6,$7*
1,1,$1+$1,$8,$9*
0 Add four rect primitives between the rounded corners*
20,1,$1+$1,$2,$3,$4,$5,0*
20,1,$1+$1,$4,$5,$6,$7,0*
20,1,$1+$1,$6,$7,$8,$9,0*
20,1,$1+$1,$8,$9,$2,$3,0*%
G04 Aperture macros list end*
%ADD10RoundRect,0.102000X0.300000X0.750000X-0.300000X0.750000X-0.300000X-0.750000X0.300000X-0.750000X0*%
%ADD11RoundRect,0.102000X1.000000X1.800000X-1.000000X1.800000X-1.000000X-1.800000X1.000000X-1.800000X0*%
%ADD12C,1.000000*%
%ADD13R,1.700000X1.700000*%
%ADD14O,1.700000X1.700000*%
%ADD15RoundRect,0.250000X-0.537500X-0.425000X0.537500X-0.425000X0.537500X0.425000X-0.537500X0.425000X0*%
%ADD16RoundRect,0.250000X-0.412500X-0.650000X0.412500X-0.650000X0.412500X0.650000X-0.412500X0.650000X0*%
%ADD17RoundRect,0.250000X-0.300000X-0.300000X0.300000X-0.300000X0.300000X0.300000X-0.300000X0.300000X0*%
%ADD18RoundRect,0.250000X-0.625000X0.312500X-0.625000X-0.312500X0.625000X-0.312500X0.625000X0.312500X0*%
G04 APERTURE END LIST*
D10*
%TO.C,J1*%
X114104258Y-80011131D03*
X114604258Y-77211131D03*
X115104258Y-80011131D03*
X115604258Y-77211131D03*
X116104258Y-80011131D03*
X116604258Y-77211131D03*
X117104258Y-80011131D03*
X117604258Y-77211131D03*
X118104258Y-80011131D03*
X118604258Y-77211131D03*
X119104258Y-80011131D03*
X119604258Y-77211131D03*
X120104258Y-80011131D03*
X120604258Y-77211131D03*
X121104258Y-80011131D03*
X121604258Y-77211131D03*
X122104258Y-80011131D03*
X122604258Y-77211131D03*
X123104258Y-80011131D03*
X123604258Y-77211131D03*
X124104258Y-80011131D03*
X124604258Y-77211131D03*
X125104258Y-80011131D03*
X125604258Y-77211131D03*
X126104258Y-80011131D03*
X126604258Y-77211131D03*
X127104258Y-80011131D03*
X127604258Y-77211131D03*
X128104258Y-80011131D03*
X128604258Y-77211131D03*
X129104258Y-80011131D03*
X129604258Y-77211131D03*
X130104258Y-80011131D03*
X130604258Y-77211131D03*
X131104258Y-80011131D03*
X131604258Y-77211131D03*
X132104258Y-80011131D03*
X132604258Y-77211131D03*
X133104258Y-80011131D03*
X133604258Y-77211131D03*
D11*
X112226408Y-78614928D03*
X135456886Y-78610777D03*
%TD*%
D12*
%TO.C,tp1*%
X109940888Y-84474133D03*
%TD*%
D13*
%TO.C,J6*%
X118005000Y-55890000D03*
D14*
X118005000Y-58430000D03*
X118005000Y-60970000D03*
X118005000Y-63510000D03*
%TD*%
D15*
%TO.C,C1*%
X128705779Y-70325603D03*
X131580779Y-70325603D03*
%TD*%
D16*
%TO.C,C2*%
X128585779Y-73440603D03*
X131710779Y-73440603D03*
%TD*%
D12*
%TO.C,tp6*%
X116880370Y-72385168D03*
%TD*%
D13*
%TO.C,J2*%
X122416803Y-66904054D03*
D14*
X124956803Y-66904054D03*
X127496803Y-66904054D03*
X130036803Y-66904054D03*
X132576803Y-66904054D03*
X135116803Y-66904054D03*
%TD*%
D13*
%TO.C,J3*%
X102740000Y-50800000D03*
D14*
X102740000Y-53340000D03*
X102740000Y-55880000D03*
X102740000Y-58420000D03*
X102740000Y-60960000D03*
X102740000Y-63500000D03*
X102740000Y-66040000D03*
X102740000Y-68580000D03*
X102740000Y-71120000D03*
%TD*%
D12*
%TO.C,tp8*%
X119822522Y-69500745D03*
%TD*%
D17*
%TO.C,D1*%
X130550000Y-53710000D03*
X133350000Y-53710000D03*
%TD*%
D12*
%TO.C,tp7*%
X112900000Y-82920000D03*
%TD*%
%TO.C,tp5*%
X115146730Y-82900163D03*
%TD*%
%TO.C,tp4*%
X119131865Y-72385168D03*
%TD*%
D13*
%TO.C,J4*%
X105280000Y-71130549D03*
D14*
X107820000Y-71130549D03*
%TD*%
D12*
%TO.C,tp3*%
X110496622Y-73883910D03*
%TD*%
%TO.C,tp2*%
X124811187Y-72201792D03*
%TD*%
D18*
%TO.C,R1*%
X123060000Y-50816274D03*
X123060000Y-53741274D03*
%TD*%
D13*
%TO.C,J9*%
X133266726Y-51179301D03*
D14*
X130726726Y-51179301D03*
%TD*%
D13*
%TO.C,J7*%
X105290735Y-78664243D03*
D14*
X107830735Y-78664243D03*
%TD*%
M02*
